<svg xmlns="http://www.w3.org/2000/svg" xmlns:svg="http://www.w3.org/2000/svg" id="svg2" width="96" height="124" version="1.1"><metadata id="metadata65"/><style id="style4" type="text/css">#background { fill: none; } .arrows { fill: #000; stroke: none; } .selected&gt;.arrows { fill: #fff; } .checkmark { fill: #000; font-family: sans-serif; font-size: 10pt; text-anchor: middle; } .trash { fill: #888; } .zoom { fill: none; stroke: #888; stroke-width: 2; stroke-linecap: round; } .zoom&gt;.center { fill: #888; stroke-width: 0; }</style><rect id="background" width="96" height="124" x="0" y="0"/><g id="g7"><path id="path9" d="M 13,1.5 13,14.5 1.74,8 z" class="arrows"/><path id="path11" d="M 17.5,3 30.5,3 24,14.26 z" class="arrows"/><path id="path13" d="M 35,1.5 35,14.5 46.26,8 z" class="arrows"/></g><g id="g15" class="selected" transform="translate(0, 16)"><path id="path17" d="M 13,1.5 13,14.5 1.74,8 z" class="arrows"/><path id="path19" d="M 17.5,3 30.5,3 24,14.26 z" class="arrows"/><path id="path21" d="M 35,1.5 35,14.5 46.26,8 z" class="arrows"/></g><g id="g25" class="trash"><path id="path27" d="M 2,41 v 6 h 42 v -6 h -10.5 l -3,-3 h -15 l -3,3 z"/><rect id="rect29" width="36" height="20" x="5" y="50"/><rect id="rect31" width="36" height="42" x="5" y="50" rx="4" ry="4"/></g><g id="g33" class="zoom"><circle id="circle35" cx="16" cy="108" r="11.5"/><circle id="circle37" cx="16" cy="108" r="4.3" class="center"/><path id="path39" d="m 28,108 h3"/><path id="path41" d="m 1,108 h3"/><path id="path43" d="m 16,120 v3"/><path id="path45" d="m 16,93 v3"/></g><g id="g47" class="zoom"><circle id="circle49" cx="48" cy="108" r="15"/><path id="path51" d="m 48,101.6 v12.8"/><path id="path53" d="m 41.6,108 h12.8"/></g><g id="g55" class="zoom"><circle id="circle57" cx="80" cy="108" r="15"/><path id="path59" d="m 73.6,108 h12.8"/></g><path style="fill:#fff" id="Fill-1" d="m 53.606125,28.447668 c -0.337724,0 -0.675448,-0.133184 -0.932699,-0.398195 l -2.532931,-2.609332 c -0.515821,-0.531379 -0.515821,-1.390283 0,-1.921664 0.515821,-0.53138 1.349577,-0.53138 1.865398,0 l 1.600232,1.6485 4.990666,-5.139839 c 0.514502,-0.53138 1.349577,-0.53138 1.865399,0 0.514502,0.530019 0.514502,1.390284 0,1.921664 l -5.923365,6.100671 c -0.257252,0.265011 -0.594976,0.398195 -0.9327,0.398195"/></svg>