<svg xmlns="http://www.w3.org/2000/svg" xmlns:svg="http://www.w3.org/2000/svg" id="Layer_1" width="100%" height="100%" x="0" y="0" class="sim" gorn="0" version="1.0" viewBox="0 0 144.058 145.025" xml:space="preserve" style="enable-background:new 0 0 144.058 145.025"><metadata id="metadata1671"/><desc id="desc3"><referenceFile>circuitplay rev D_breadboard.svg</referenceFile></desc><style id="style5" type="text/css">.st0{fill:#0a0a0a}.st1{stroke-width:.576;stroke-linecap:round}.st1,.st2,.st3{fill:none;stroke:#fff}.st2{stroke-width:.864}.st2,.st3,.st4{stroke-linecap:round}.st3{stroke-width:.36}.st4{fill:none}.st4,.st5{stroke:#fff;stroke-width:.432}.st10,.st5{fill:none}.st6{stroke-width:.144}.st6,.st7,.st8,.st9{fill:none;stroke:#fff}.st7{stroke-width:1.152}.st8{stroke-width:.36}.st9{stroke-width:.576}.st10{stroke:#9a916c;stroke-width:1.44}.st11{fill:#9a916c}.st12,.st13{fill:none;stroke:#9a916c;stroke-width:.72}.st13{stroke-width:2.1444}.st14{fill:#666}.st15{fill:#333}.st16{fill:#dcdcdc}.st18{fill:#b4b4b4}.st19{fill:#f0f0f0}.st22{fill:red}.st23{fill:#a00000}.st24{fill:#fff}.st25{fill:#c8c8c8}.st27{fill:#0f0}.st28{fill:#00b400}.st29{fill:#1e1e1e}</style><desc id="desc7">Fritzing breadboard generated by brd2svg</desc><g id="breadboard" gorn=".2"><g id="icon" gorn="0.2.0"><path id="path11" d="M62.129,1.65h19.8c39.403,5.468,66.913,41.842,61.445,81.245c-5.468,39.403-41.842,66.913-81.245,61.445S-4.784,102.498,0.684,63.095C5.113,31.174,30.208,6.079,62.129,1.65 M76.565,13.89c0,0.548,0.444,0.992,0.992,0.992c0.548,0,0.992-0.444,0.992-0.992l0,0c0-0.548-0.444-0.992-0.992-0.992C77.009,12.898,76.565,13.342,76.565,13.89z M65.51,13.89c0,0.548,0.444,0.992,0.992,0.992c0.548,0,0.992-0.444,0.992-0.992l0,0c0-0.548-0.444-0.992-0.992-0.992C65.954,12.898,65.51,13.342,65.51,13.89z M74.864,98.49c0,0.783,0.635,1.417,1.417,1.417c0.783,0,1.417-0.635,1.417-1.417l0,0c0-0.783-0.635-1.417-1.417-1.417C75.498,97.072,74.864,97.707,74.864,98.49z M66.36,98.49c0,0.783,0.635,1.417,1.417,1.417c0.783,0,1.417-0.635,1.417-1.417l0,0c0-0.783-0.635-1.417-1.417-1.417C66.995,97.072,66.36,97.707,66.36,98.49z M1.794,72.929c-0.004,2.505,2.024,4.538,4.529,4.542s4.538-2.024,4.542-4.529c0-0.005,0-0.009,0-0.014c0.004-2.505-2.024-4.538-4.529-4.542s-4.538,2.024-4.542,4.529C1.794,72.921,1.794,72.925,1.794,72.929z M100.254,15.883c-0.004,2.505,2.023,4.539,4.528,4.543c2.505,0.004,4.539-2.023,4.543-4.528c0-0.005,0-0.01,0-0.016c0.004-2.505-2.023-4.539-4.528-4.543s-4.539,2.023-4.543,4.528C100.254,15.872,100.254,15.877,100.254,15.883z M80.25,16.441c0,0.626,0.508,1.134,1.134,1.134c0.626,0,1.134-0.508,1.134-1.134c0-0.626-0.508-1.134-1.134-1.134C80.758,15.307,80.25,15.815,80.25,16.441L80.25,16.441z M61.541,16.441c0,0.626,0.507,1.134,1.133,1.135s1.134-0.507,1.135-1.133c0-0.001,0-0.001,0-0.002c0-0.626-0.507-1.134-1.133-1.135s-1.134,0.507-1.135,1.133C61.541,16.44,61.541,16.44,61.541,16.441z M80.959,8.504c-0.001,0.704,0.57,1.276,1.274,1.277c0.704,0.001,1.276-0.57,1.277-1.274c0-0.001,0-0.002,0-0.003c0.001-0.704-0.57-1.276-1.274-1.277c-0.704-0.001-1.276,0.57-1.277,1.274C80.959,8.502,80.959,8.503,80.959,8.504z M60.549,8.504c0,0.704,0.571,1.276,1.276,1.276c0.704,0,1.276-0.571,1.276-1.276c0.001-0.704-0.57-1.276-1.274-1.277c-0.704-0.001-1.276,0.57-1.277,1.274C60.549,8.502,60.549,8.503,60.549,8.504z M129.327,95.382c-0.004,2.505,2.023,4.539,4.528,4.543c2.505,0.004,4.539-2.023,4.543-4.528c0-0.005,0-0.01,0-0.016c0.004-2.505-2.023-4.539-4.528-4.543c-2.505-0.004-4.539,2.023-4.543,4.528C129.327,95.372,129.327,95.377,129.327,95.382z M34.554,16.063c-0.004,2.505,2.024,4.538,4.529,4.542c2.505,0.004,4.538-2.024,4.542-4.529c0-0.004,0-0.009,0-0.013c0.004-2.505-2.024-4.538-4.529-4.542c-2.505-0.004-4.538,2.024-4.542,4.529C34.554,16.054,34.554,16.058,34.554,16.063z M133.194,72.929c-0.004,2.505,2.023,4.539,4.528,4.543c2.505,0.004,4.539-2.023,4.543-4.528c0-0.005,0-0.01,0-0.016c0.004-2.505-2.023-4.539-4.528-4.543c-2.505-0.004-4.539,2.023-4.543,4.528C133.194,72.919,133.194,72.924,133.194,72.929z M34.734,129.977c-0.004,2.505,2.024,4.538,4.529,4.542c2.505,0.004,4.538-2.024,4.542-4.529c0-0.004,0-0.009,0-0.013c0.004-2.505-2.024-4.538-4.529-4.542c-2.505-0.004-4.538,2.024-4.542,4.529C34.734,129.968,34.734,129.973,34.734,129.977z M129.327,50.477c-0.004,2.505,2.023,4.539,4.528,4.543c2.505,0.004,4.539-2.023,4.543-4.528c0-0.005,0-0.01,0-0.016c0.004-2.505-2.023-4.539-4.528-4.543c-2.505-0.004-4.539,2.023-4.543,4.528C129.327,50.467,129.327,50.472,129.327,50.477z M117.917,30.604c-0.003,2.505,2.025,4.538,4.53,4.541c2.505,0.003,4.538-2.025,4.541-4.53c0-0.003,0-0.007,0-0.01c0.004-2.505-2.023-4.539-4.528-4.543c-2.505-0.004-4.539,2.023-4.543,4.528C117.917,30.594,117.917,30.599,117.917,30.604z M117.917,115.255c-0.003,2.505,2.025,4.538,4.53,4.541c2.505,0.003,4.538-2.025,4.541-4.53c0-0.003,0-0.007,0-0.01c0.004-2.505-2.023-4.539-4.528-4.543c-2.505-0.004-4.539,2.023-4.543,4.528C117.917,115.245,117.917,115.25,117.917,115.255z M5.841,96.102c-0.004,2.505,2.024,4.538,4.529,4.542s4.538-2.024,4.542-4.529c0-0.004,0-0.009,0-0.013c0.004-2.505-2.024-4.538-4.529-4.542s-4.538,2.024-4.542,4.529C5.841,96.093,5.841,96.098,5.841,96.102z M17.071,30.784c-0.004,2.505,2.024,4.538,4.529,4.542s4.538-2.024,4.542-4.529c0-0.004,0-0.009,0-0.013c0.004-2.505-2.024-4.538-4.529-4.542s-4.538,2.024-4.542,4.529C17.071,30.775,17.071,30.78,17.071,30.784z M5.661,50.477c-0.004,2.505,2.024,4.538,4.529,4.542c2.505,0.004,4.538-2.024,4.542-4.529c0-0.005,0-0.009,0-0.014c0.004-2.505-2.024-4.538-4.529-4.542c-2.505-0.004-4.538,2.024-4.542,4.529C5.661,50.468,5.661,50.473,5.661,50.477z M17.791,115.975c-0.004,2.505,2.024,4.538,4.529,4.542s4.538-2.024,4.542-4.529c0-0.004,0-0.009,0-0.013c0.004-2.505-2.024-4.538-4.529-4.542s-4.538,2.024-4.542,4.529C17.791,115.966,17.791,115.971,17.791,115.975z M100.254,129.977c-0.004,2.505,2.023,4.539,4.528,4.543c2.505,0.004,4.539-2.023,4.543-4.528c0-0.005,0-0.01,0-0.016c0.004-2.505-2.023-4.539-4.528-4.543c-2.505-0.004-4.539,2.023-4.543,4.528C100.254,129.967,100.254,129.972,100.254,129.977z" class="st0"/><g id="g13"><title id="title15">layer 21</title><g id="g17"><title id="title19">element:3.3VTAP</title><g id="g21"><title id="title23">package:SEWALLI</title></g></g><g id="g25"><title id="title27">element:3V3TAP2</title><g id="g29"><title id="title31">package:SEWALLI</title></g></g><g id="g33"><title id="title35">element:BATT</title><g id="g37"><title id="title39">package:JSTPH2</title><line id="line41" x1="78.408" x2="65.651" y1="142.633" y2="142.633" class="st1"/><line id="line43" x1="60.691" x2="60.691" y1="132.713" y2="121.374" class="st1"/><line id="line45" x1="60.691" x2="63.1" y1="121.374" y2="121.374" class="st1"/><line id="line47" x1="63.1" x2="63.1" y1="121.374" y2="128.46" class="st1"/><line id="line49" x1="63.1" x2="67.069" y1="128.46" y2="128.46" class="st1"/><line id="line51" x1="76.99" x2="80.959" y1="128.46" y2="128.46" class="st1"/><line id="line53" x1="80.959" x2="80.959" y1="128.46" y2="121.374" class="st1"/><line id="line55" x1="80.959" x2="83.368" y1="121.374" y2="121.374" class="st1"/><line id="line57" x1="83.368" x2="83.368" y1="121.374" y2="132.713" class="st1"/></g></g><g id="g59"><title id="title61">element:CN1</title><g id="g63"><title id="title65">package:4UCONN_20329_V2</title><line id="line67" x1="79.116" x2="76.848" y1="17.008" y2="17.008" class="st3"/><line id="line69" x1="67.21" x2="64.943" y1="17.008" y2="17.008" class="st3"/><line id="line71" x1="82.801" x2="82.801" y1="4.252" y2="1.701" class="st3"/><line id="line73" x1="82.801" x2="61.258" y1="1.701" y2="1.701" class="st3"/><line id="line75" x1="61.258" x2="61.258" y1="1.701" y2="4.252" class="st3"/></g></g><g id="g77"><title id="title79">element:D6</title><g id="g81"><title id="title83">package:SEWALLI</title></g></g><g id="g85"><title id="title87">element:F1</title><g id="g89"><title id="title91">package:R1206</title></g></g><g id="g93"><title id="title95">element:GND3TAP</title><g id="g97"><title id="title99">package:SEWALLI</title></g></g><g id="g101"><title id="title103">element:GNDTAP</title><g id="g105"><title id="title107">package:SEWALLI</title></g></g><g id="g109"><title id="title111">element:GNDTAP2</title><g id="g113"><title id="title115">package:SEWALLI</title></g></g><g id="g117"><title id="title119">element:IC2</title><g id="g121"><title id="title123">package:MSOP08</title><line id="line125" x1="93.187" x2="100.557" y1="84.167" y2="84.167" class="st4"/><line id="line127" x1="100.557" x2="93.187" y1="93.379" y2="93.379" class="st4"/><path id="path129" d="M93.187,84.167c-0.508,0-0.921,0.412-0.921,0.921" class="st5"/><path id="path131" d="M92.266,92.457c0,0.509,0.412,0.921,0.921,0.922" class="st5"/><path id="path133" d="M100.557,93.379c0.509,0,0.921-0.413,0.921-0.922c0,0,0,0,0,0" class="st5"/><path id="path135" d="M101.478,85.087c0-0.509-0.412-0.921-0.921-0.921" class="st5"/><circle id="circle137" cx="99.111" cy="91.45" r="1.417" class="st6"/></g></g><g id="g139"><title id="title141">element:IC4</title><g id="g143"><title id="title145">package:LGA16_3X3MM</title><line id="line147" x1="76.848" x2="76.848" y1="74.339" y2="72.071" class="st1"/><line id="line149" x1="76.848" x2="75.856" y1="72.071" y2="72.071" class="st1"/><line id="line151" x1="67.21" x2="67.21" y1="74.339" y2="72.071" class="st1"/><line id="line153" x1="67.21" x2="68.203" y1="72.071" y2="72.071" class="st1"/><line id="line155" x1="68.203" x2="67.21" y1="81.709" y2="81.709" class="st1"/><line id="line157" x1="67.21" x2="67.21" y1="81.709" y2="79.441" class="st1"/><line id="line159" x1="76.848" x2="76.848" y1="79.441" y2="81.709" class="st1"/><line id="line161" x1="76.848" x2="75.856" y1="81.709" y2="81.709" class="st1"/><circle id="circle163" cx="76.423" cy="70.512" r=".283" class="st7"/></g></g><g id="g165"><title id="title167">element:IO9</title><g id="g169"><title id="title171">package:SEWALLI</title></g></g><g id="g173"><title id="title175">element:IO10</title><g id="g177"><title id="title179">package:SEWALLI</title></g></g><g id="g181"><title id="title183">element:IO12</title><g id="g185"><title id="title187">package:SEWALLI</title></g></g><g id="g189"><title id="title191">element:L</title><g id="g193"><title id="title195">package:CHIPLED_0805_NOOUTLINE</title><g id="g197"><title id="title199">polygon</title><path id="path201" d="M89.669,9.57l1.08,1.44h-2.16L89.669,9.57 M88.805,10.722h1.728H88.805 M89.129,10.29h1.08H89.129" class="st4"/></g></g></g><g id="g203"><title id="title205">element:PWR</title><g id="g207"><title id="title209">package:CHIPLED_0805_NOOUTLINE</title><g id="g211"><title id="title213">polygon</title><path id="path215" d="M54.029,10.29l1.08,1.44h-2.16L54.029,10.29 M53.165,11.442h1.728H53.165 M53.489,11.01h1.08H53.489" class="st4"/></g></g></g><g id="g217"><title id="title219">element:R6</title><g id="g221"><title id="title223">package:RESPACK_4X0603_NO</title></g></g><g id="g225"><title id="title227">element:R10</title><g id="g229"><title id="title231">package:RESPACK_4X0603_NO</title></g></g><g id="g233"><title id="title235">element:RESET</title><g id="g237"><title id="title239">package:BTN_KMR2_4.6X2.8</title><line id="line241" x1="77.982" x2="66.077" y1="70.774" y2="70.774" class="st1"/><line id="line243" x1="66.077" x2="77.982" y1="62.126" y2="62.126" class="st1"/></g></g><g id="g245"><title id="title247">element:RX</title><g id="g249"><title id="title251">package:SEWALLI</title></g></g><g id="g253"><title id="title255">element:SCL</title><g id="g257"><title id="title259">package:SEWALLI</title></g></g><g id="g261"><title id="title263">element:SDA</title><g id="g265"><title id="title267">package:SEWALLI</title></g></g><g id="g269"><title id="title271">element:SP1</title><g id="g273"><title id="title275">package:BUZZER_SMT_5MM</title><line id="line277" x1="40.463" x2="52.368" y1="85.283" y2="85.283" class="st3"/><line id="line279" x1="52.368" x2="54.636" y1="85.283" y2="87.551" class="st3"/><line id="line281" x1="54.636" x2="54.636" y1="87.551" y2="99.456" class="st3"/><line id="line283" x1="54.636" x2="40.463" y1="99.456" y2="99.456" class="st3"/><line id="line285" x1="40.463" x2="40.463" y1="99.456" y2="85.283" class="st3"/><circle id="circle287" cx="47.266" cy="89.535" r="1.417" class="st8"/></g></g><g id="g289"><title id="title291">element:SW1</title><g id="g293"><title id="title295">package:EVQ-Q2_SMALLER</title><line id="line297" x1="53.304" x2="34.595" y1="79.633" y2="79.633" class="st1"/><line id="line299" x1="34.595" x2="53.304" y1="62.626" y2="62.626" class="st1"/><line id="line301" x1="53.304" x2="53.304" y1="67.728" y2="74.532" class="st1"/><line id="line303" x1="34.595" x2="34.595" y1="74.532" y2="67.728" class="st1"/><circle id="circle305" cx="43.949" cy="71.13" r="4.261" class="st9"/><circle id="circle307" cx="43.949" cy="71.13" r="2.835" class="st9"/></g></g><g id="g309"><title id="title311">element:SW2</title><g id="g313"><title id="title315">package:EVQ-Q2_SMALLER</title><line id="line317" x1="109.463" x2="90.755" y1="79.633" y2="79.633" class="st1"/><line id="line319" x1="90.755" x2="109.463" y1="62.626" y2="62.626" class="st1"/><line id="line321" x1="109.463" x2="109.463" y1="67.728" y2="74.532" class="st1"/><line id="line323" x1="90.755" x2="90.755" y1="74.532" y2="67.728" class="st1"/><circle id="circle325" cx="100.109" cy="71.13" r="4.261" class="st9"/><circle id="circle327" cx="100.109" cy="71.13" r="2.835" class="st9"/></g></g><g id="g329"><title id="title331">element:SWITCH</title><g id="g333"><title id="title335">package:EG1390</title><line id="line337" x1="61.825" x2="82.234" y1="93.529" y2="93.529" class="st3"/><line id="line339" x1="82.234" x2="82.234" y1="93.529" y2="103.45" class="st3"/><line id="line341" x1="82.234" x2="61.825" y1="103.45" y2="103.45" class="st3"/><line id="line343" x1="61.825" x2="61.825" y1="103.45" y2="93.529" class="st3"/></g></g><g id="g345"><title id="title347">element:THM1</title><g id="g349"><title id="title351">package:_0402</title><line id="line353" x1="89.913" x2="95.907" y1="45.075" y2="45.075" class="st1"/><line id="line355" x1="95.907" x2="95.907" y1="45.075" y2="48.225" class="st1"/><line id="line357" x1="95.907" x2="89.913" y1="48.225" y2="48.225" class="st1"/><line id="line359" x1="89.913" x2="89.913" y1="48.225" y2="45.075" class="st1"/></g></g><g id="g361"><title id="title363">element:TP5</title><g id="g365"><title id="title367">package:TESTPOINT_ROUND_1.5MM</title></g></g><g id="g369"><title id="title371">element:TP6</title><g id="g373"><title id="title375">package:TESTPOINT_ROUND_1.5MM</title></g></g><g id="g377"><title id="title379">element:TX</title><g id="g381"><title id="title383">package:SEWALLI</title></g></g><g id="g385"><title id="title387">element:U$1</title><g id="g389"><title id="title391">package:SYMBOL_MINUS</title><line id="line393" x1="87.735" x2="85.485" y1="123.69" y2="123.69" class="st2"/><circle id="circle395" cx="86.609" cy="123.69" r="2.216" class="st9"/></g></g><g id="g397"><title id="title399">element:U$2</title><g id="g401"><title id="title403">package:FIDUCIAL_1MM</title></g></g><g id="g405"><title id="title407">element:U$3</title><g id="g409"><title id="title411">package:FIDUCIAL_1MM</title></g></g><g id="g413"><title id="title415">element:U$4</title><g id="g417"><title id="title419">package:FLORAMED</title></g></g><g id="g421"><title id="title423">element:U$5</title><g id="g425"><title id="title427">package:TQFN48_7MM</title><line id="line429" x1="63.384" x2="61.825" y1="35.905" y2="35.905" class="st3"/><line id="line431" x1="61.825" x2="61.825" y1="35.905" y2="37.464" class="st3"/><line id="line433" x1="80.675" x2="82.234" y1="35.905" y2="35.905" class="st3"/><line id="line435" x1="82.234" x2="82.234" y1="35.905" y2="37.464" class="st3"/><line id="line437" x1="61.825" x2="61.825" y1="54.755" y2="56.314" class="st3"/><line id="line439" x1="61.825" x2="63.384" y1="56.314" y2="56.314" class="st3"/><line id="line441" x1="82.234" x2="82.234" y1="54.755" y2="56.314" class="st3"/><line id="line443" x1="82.234" x2="80.675" y1="56.314" y2="56.314" class="st3"/></g></g><g id="g445"><title id="title447">element:U$6</title><g id="g449"><title id="title451">package:FIDUCIAL_1MM</title></g></g><g id="g453"><title id="title455">element:U$7</title><g id="g457"><title id="title459">package:PCBFEAT-REV-040</title></g></g><g id="g461"><title id="title463">element:U$34</title><g id="g465"><title id="title467">package:CPLAY_EXPRESS_FRONT_REVD</title></g></g><g id="g469"><title id="title471">element:U$35</title><g id="g473"><title id="title475">package:SYMBOL_PLUS</title><line id="line477" x1="58.754" x2="56.504" y1="124.05" y2="124.05" class="st2"/><line id="line479" x1="57.629" x2="57.629" y1="122.925" y2="125.175" class="st2"/><circle id="circle481" cx="57.629" cy="124.05" r="2.216" class="st9"/></g></g><g id="g483"><title id="title485">element:U$46</title><g id="g487"><title id="title489">package:CPLAY_EXPRESS_BACK_REVD</title></g></g><g id="g491"><title id="title493">element:U1</title><g id="g495"><title id="title497">package:SPW2430HR5H-B</title><line id="line499" x1="93.13" x2="93.13" y1="101.994" y2="94.342" class="st3"/><line id="line501" x1="93.13" x2="102.768" y1="94.342" y2="94.342" class="st3"/><line id="line503" x1="102.768" x2="102.768" y1="94.342" y2="102.278" class="st3"/><line id="line505" x1="102.768" x2="93.13" y1="102.278" y2="102.278" class="st3"/><line id="line507" x1="93.13" x2="93.13" y1="102.278" y2="101.994" class="st3"/><circle id="circle509" cx="96.362" cy="98.31" r=".638" class="st8"/></g></g><g id="g511"><title id="title513">element:U2</title><g id="g515"><title id="title517">package:ALS-PT19-315C</title><line id="line519" x1="48.262" x2="46.136" y1="52.675" y2="52.675" class="st3"/><line id="line521" x1="46.136" x2="45.853" y1="52.675" y2="52.675" class="st3"/><line id="line523" x1="45.853" x2="42.876" y1="52.675" y2="52.675" class="st3"/><line id="line525" x1="42.876" x2="42.876" y1="52.675" y2="49.264" class="st3"/><line id="line527" x1="42.876" x2="45.853" y1="49.264" y2="49.264" class="st3"/><line id="line529" x1="46.136" x2="48.262" y1="49.264" y2="49.264" class="st3"/><line id="line531" x1="48.262" x2="48.262" y1="49.264" y2="52.675" class="st3"/><line id="line533" x1="46.136" x2="46.136" y1="52.675" y2="49.264" class="st3"/><line id="line535" x1="46.136" x2="45.853" y1="49.264" y2="49.264" class="st3"/><line id="line537" x1="45.853" x2="45.853" y1="49.264" y2="52.675" class="st3"/></g></g><g id="g539"><title id="title541">element:VCC2</title><g id="g543"><title id="title545">package:SEWALLI</title></g></g></g><circle id="connector5pin" cx="6.329" cy="72.929" r="5.255" class="st10" gorn="0.2.0.2"/><circle id="connector6pin" cx="104.789" cy="15.883" r="5.255" class="st10" gorn="0.2.0.3"/><g id="g551" transform="matrix(0, 1, -1, 0, 220.049, 56.7149)"><g id="g553"><g id="g555" transform="matrix(2.535182e-06 1 -1 2.535182e-06 220.0478 56.7143)"><rect id="connector9pin" width="4.535" height="9.638" x="79.399" y="133.562" class="st11" gorn="0.2.0.6.0.0.0"/></g></g></g><g id="g558" transform="matrix(0, 1, -1, 0, 200.773, 75.9902)"><g id="g560"><g id="g562" transform="matrix(2.535182e-06 1 -1 2.535182e-06 200.7725 75.9897)"><rect id="connector10pin" width="4.535" height="9.638" x="60.124" y="133.562" class="st11" gorn="0.2.0.7.0.0.0"/></g></g></g><g id="g565" transform="matrix(0, 1, -1, 0, 82.3752, -65.9346)"><g id="g567"><g id="g569" transform="matrix(2.535182e-06 1 -1 2.535182e-06 82.375 -65.935)"><rect id="connector29pin" width="2.835" height="5.669" x="72.738" y="5.385" class="st11" gorn="0.2.0.26.0.0.0"/></g></g></g><g id="g572" transform="matrix(0, 1, -1, 0, 78.1236, -61.6826)"><g id="g574"><g id="g576" transform="matrix(2.535182e-06 1 -1 2.535182e-06 78.123 -61.683)"><rect id="connector30pin" width="2.835" height="5.669" x="68.486" y="5.385" class="st11" gorn="0.2.0.27.0.0.0"/></g></g></g><g id="g579" transform="matrix(-1, 0, 0, -1, 144.058, 32.1732)"><g id="g581"><rect id="connector31pin" width="1.134" height="3.827" x="71.462" y="14.173" class="st11" gorn="0.2.0.28.0.0"/></g></g><g id="g584" transform="matrix(-1, 0, 0, -1, 147.743, 32.1732)"><g id="g586"><rect id="connector32pin" width="1.134" height="3.827" x="73.304" y="14.173" class="st11" gorn="0.2.0.29.0.0"/></g></g><g id="g589" transform="matrix(-1, 0, 0, -1, 136.688, 32.1732)"><g id="g591"><rect id="connector33pin" width="1.134" height="3.827" x="67.777" y="14.173" class="st11" gorn="0.2.0.30.0.0"/></g></g><g id="g594" transform="matrix(-1, 0, 0, -1, 140.373, 32.1732)"><g id="g596"><rect id="connector34pin" width="1.134" height="3.827" x="69.619" y="14.173" class="st11" gorn="0.2.0.31.0.0"/></g></g><circle id="connector35pin" cx="81.383" cy="16.441" r="1.494" class="st12" gorn="0.2.0.32"/><path id="path600" d="M79.89,14.947h4.482v2.988H79.89V14.947 M79.89,16.441c-0.001,0.825,0.667,1.495,1.492,1.496c0.825,0.001,1.495-0.667,1.496-1.492c0-0.001,0-0.003,0-0.004c0.001-0.825-0.667-1.495-1.492-1.496c-0.825-0.001-1.495,0.667-1.496,1.492C79.89,16.438,79.89,16.439,79.89,16.441z" class="st11"/><circle id="connector36pin" cx="62.675" cy="16.441" r="1.494" class="st12" gorn="0.2.0.34"/><path id="path603" d="M59.687,14.947h4.482v2.988h-4.482V14.947 M61.181,16.441c-0.001,0.825,0.667,1.495,1.492,1.496c0.825,0.001,1.495-0.667,1.496-1.492c0-0.001,0-0.003,0-0.004c0-0.825-0.669-1.494-1.494-1.494C61.85,14.947,61.181,15.616,61.181,16.441z" class="st11"/><circle id="connector37pin" cx="82.234" cy="8.504" r="2.348" class="st13" gorn="0.2.0.36"/><rect id="rect606" width="4.696" height="4.696" x="79.887" y="6.156" class="st13"/><circle id="connector38pin" cx="61.825" cy="8.504" r="2.348" class="st13" gorn="0.2.0.38"/><rect id="rect609" width="4.696" height="4.696" x="59.477" y="6.156" class="st13"/><g id="g611" transform="matrix(-1, 0, 0, -1, 151.428, 32.1732)"><g id="g613"><rect id="connector39pin" width="1.134" height="3.827" x="75.147" y="14.173" class="st11" gorn="0.2.0.40.0.0"/></g></g><circle id="PIN_CONNECTOR_A9" cx="133.862" cy="95.382" r="5.255" class="st10" gorn="0.2.0.47"/><circle id="connector49pin" cx="39.089" cy="16.063" r="5.255" class="st10" gorn="0.2.0.50"/><circle id="connector50pin" cx="137.729" cy="72.929" r="5.255" class="st10" gorn="0.2.0.51"/><circle id="connector51pin" cx="39.269" cy="129.977" r="5.255" class="st10" gorn="0.2.0.52"/><g id="g620" transform="matrix(0, 1, -1, 0, 147.927, -1.8007)"><g id="g622"><g id="g624" transform="matrix(2.535182e-06 1 -1 2.535182e-06 147.9259 -1.8014)"><rect id="connector60pin" width=".709" height="1.417" x="74.509" y="72.354" class="st11" gorn="0.2.0.61.0.0.0"/></g></g></g><g id="g627" transform="matrix(0, 1, -1, 0, 146.509, -0.383377)"><g id="g629"><g id="g631" transform="matrix(2.535182e-06 1 -1 2.535182e-06 146.5089 -0.3844)"><rect id="connector61pin" width=".709" height="1.417" x="73.092" y="72.354" class="st11" gorn="0.2.0.62.0.0.0"/></g></g></g><g id="g634" transform="matrix(0, 1, -1, 0, 145.092, 1.03395)"><g id="g636"><g id="g638" transform="matrix(2.535182e-06 1 -1 2.535182e-06 145.0913 1.0332)"><rect id="connector62pin" width=".709" height="1.417" x="71.675" y="72.354" class="st11" gorn="0.2.0.63.0.0.0"/></g></g></g><g id="g641" transform="matrix(0, 1, -1, 0, 143.675, 2.45127)"><g id="g643"><g id="g645" transform="matrix(2.535182e-06 1 -1 2.535182e-06 143.674 2.4505)"><rect id="connector63pin" width=".709" height="1.417" x="70.257" y="72.354" class="st11" gorn="0.2.0.64.0.0.0"/></g></g></g><g id="g648" transform="matrix(0, 1, -1, 0, 142.258, 3.86859)"><g id="g650"><g id="g652" transform="matrix(2.535182e-06 1 -1 2.535182e-06 142.2567 3.8678)"><rect id="connector64pin" width=".709" height="1.417" x="68.84" y="72.354" class="st11" gorn="0.2.0.65.0.0.0"/></g></g></g><rect id="connector65pin" width="1.417" height=".709" x="67.494" y="75.118" class="st11" gorn="0.2.0.66"/><rect id="connector66pin" width="1.417" height=".709" x="67.494" y="76.535" class="st11" gorn="0.2.0.67"/><rect id="connector67pin" width="1.417" height=".709" x="67.494" y="77.953" class="st11" gorn="0.2.0.68"/><g id="g658" transform="matrix(0, -1, 1, 0, -11.5222, 149.911)"><g id="g660"><g id="g662" transform="matrix(-2.535182e-06 -1 1 -2.535182e-06 -11.5222 149.9115)"><rect id="connector68pin" width=".709" height="1.417" x="68.84" y="80.008" class="st11" gorn="0.2.0.69.0.0.0"/></g></g></g><g id="g665" transform="matrix(0, -1, 1, 0, -10.1048, 151.328)"><g id="g667"><g id="g669" transform="matrix(-2.535182e-06 -1 1 -2.535182e-06 -10.1049 151.3288)"><rect id="connector69pin" width=".709" height="1.417" x="70.257" y="80.008" class="st11" gorn="0.2.0.70.0.0.0"/></g></g></g><g id="g672" transform="matrix(0, -1, 1, 0, -8.68752, 152.746)"><g id="g674"><g id="g676" transform="matrix(-2.535182e-06 -1 1 -2.535182e-06 -8.6876 152.7461)"><rect id="connector70pin" width=".709" height="1.417" x="71.675" y="80.008" class="st11" gorn="0.2.0.71.0.0.0"/></g></g></g><g id="g679" transform="matrix(0, -1, 1, 0, -7.2702, 154.163)"><g id="g681"><g id="g683" transform="matrix(-2.535182e-06 -1 1 -2.535182e-06 -7.27 154.1637)"><rect id="connector71pin" width=".709" height="1.417" x="73.092" y="80.008" class="st11" gorn="0.2.0.72.0.0.0"/></g></g></g><g id="g686" transform="matrix(0, -1, 1, 0, -5.85284, 155.58)"><g id="g688"><g id="g690" transform="matrix(-2.535182e-06 -1 1 -2.535182e-06 -5.853 155.5807)"><rect id="connector72pin" width=".709" height="1.417" x="74.509" y="80.008" class="st11" gorn="0.2.0.73.0.0.0"/></g></g></g><g id="g693" transform="matrix(-1, 0, 0, -1, 151.712, 156.614)"><g id="g695"><rect id="connector73pin" width="1.417" height=".709" x="75.147" y="77.953" class="st11" gorn="0.2.0.74.0.0"/></g></g><g id="g698" transform="matrix(-1, 0, 0, -1, 151.712, 153.78)"><g id="g700"><rect id="connector74pin" width="1.417" height=".709" x="75.147" y="76.535" class="st11" gorn="0.2.0.75.0.0"/></g></g><g id="g703" transform="matrix(-1, 0, 0, -1, 151.712, 150.945)"><g id="g705"><rect id="connector75pin" width="1.417" height=".709" x="75.147" y="75.118" class="st11" gorn="0.2.0.76.0.0"/></g></g><circle id="PIN_CONNECTOR_A10" cx="133.862" cy="50.477" r="5.255" class="st10" gorn="0.2.0.77"/><circle id="PIN_CONNECTOR_A11" cx="122.452" cy="30.604" r="5.255" class="st10" gorn="0.2.0.78"/><circle id="PIN_CONNECTOR_A8" cx="122.452" cy="115.255" r="5.255" class="st10" gorn="0.2.0.79"/><rect id="connector79pin" width="3.402" height="3.402" x="87.969" y="11.565" class="st11" gorn="0.2.0.80"/><rect id="connector80pin" width="3.402" height="3.402" x="87.969" y="5.613" class="st11" gorn="0.2.0.81"/><rect id="connector121pin" width="3.402" height="3.402" x="52.329" y="12.285" class="st11" gorn="0.2.0.122"/><rect id="connector122pin" width="3.402" height="3.402" x="52.329" y="6.333" class="st11" gorn="0.2.0.123"/><circle id="PIN_CONNECTOR_A6" cx="10.376" cy="96.102" r="5.255" class="st10" gorn="0.2.0.167"/><circle id="PIN_CONNECTOR_A4" cx="21.606" cy="30.784" r="5.255" class="st10" gorn="0.2.0.168"/><circle id="PIN_CONNECTOR_A5" cx="10.196" cy="50.477" r="5.255" class="st10" gorn="0.2.0.169"/><g id="g718" transform="matrix(0, -1, 1, 0, -56.7262, 137.084)"><g id="g720"><g id="g722" transform="matrix(-2.535182e-06 -1 1 -2.535182e-06 -56.7267 137.0849)"><rect id="connector169pin" width="4.252" height="2.835" x="38.053" y="95.488" class="st11" gorn="0.2.0.170.0.0.0"/></g></g></g><g id="g725" transform="matrix(0, -1, 1, 0, -42.2695, 151.541)"><g id="g727"><g id="g729" transform="matrix(-2.535182e-06 -1 1 -2.535182e-06 -42.2699 151.5417)"><rect id="connector170pin" width="4.252" height="2.835" x="52.51" y="95.488" class="st11" gorn="0.2.0.171.0.0.0"/></g></g></g><g id="g732" transform="matrix(0, -1, 1, 0, -47.0884, 127.446)"><g id="g734"><g id="g736" transform="matrix(-2.535182e-06 -1 1 -2.535182e-06 -47.0887 127.4469)"><rect id="connector171pin" width="4.252" height="2.835" x="38.053" y="85.85" class="st11" gorn="0.2.0.172.0.0.0"/></g></g></g><g id="g739" transform="matrix(-1, 0, 0, -1, 105.473, 130.921)"><g id="g741"><rect id="connector172pin" width="5.669" height="3.402" x="49.901" y="63.76" class="st11" gorn="0.2.0.173.0.0"/></g></g><g id="g744" transform="matrix(-1, 0, 0, -1, 70.3233, 130.921)"><g id="g746"><rect id="connector173pin" width="5.669" height="3.402" x="32.327" y="63.76" class="st11" gorn="0.2.0.174.0.0"/></g></g><g id="g749" transform="matrix(-1, 0, 0, -1, 105.473, 153.598)"><g id="g751"><rect id="connector174pin" width="5.669" height="3.402" x="49.901" y="75.098" class="st11" gorn="0.2.0.175.0.0"/></g></g><g id="g754" transform="matrix(-1, 0, 0, -1, 70.3233, 153.598)"><g id="g756"><rect id="connector175pin" width="5.669" height="3.402" x="32.327" y="75.098" class="st11" gorn="0.2.0.176.0.0"/></g></g><g id="g759" transform="matrix(-1, 0, 0, -1, 217.793, 130.921)"><g id="g761"><rect id="connector176pin" width="5.669" height="3.402" x="106.062" y="63.76" class="st11" gorn="0.2.0.177.0.0"/></g></g><g id="g764" transform="matrix(-1, 0, 0, -1, 182.643, 130.921)"><g id="g766"><rect id="connector177pin" width="5.669" height="3.402" x="88.487" y="63.76" class="st11" gorn="0.2.0.178.0.0"/></g></g><g id="g769" transform="matrix(-1, 0, 0, -1, 217.793, 153.598)"><g id="g771"><rect id="connector178pin" width="5.669" height="3.402" x="106.062" y="75.098" class="st11" gorn="0.2.0.179.0.0"/></g></g><g id="g774" transform="matrix(-1, 0, 0, -1, 182.643, 153.598)"><g id="g776"><rect id="connector179pin" width="5.669" height="3.402" x="88.487" y="75.098" class="st11" gorn="0.2.0.180.0.0"/></g></g><rect id="connector180pin" width="2.835" height="4.252" x="63.525" y="88.427" class="st11" gorn="0.2.0.181"/><rect id="connector181pin" width="2.835" height="4.252" x="63.525" y="104.301" class="st11" gorn="0.2.0.182"/><rect id="connector182pin" width="2.835" height="4.252" x="70.612" y="88.427" class="st11" gorn="0.2.0.183"/><rect id="connector183pin" width="2.835" height="4.252" x="70.612" y="104.301" class="st11" gorn="0.2.0.184"/><rect id="connector184pin" width="2.835" height="4.252" x="77.698" y="88.427" class="st11" gorn="0.2.0.185"/><rect id="connector185pin" width="2.835" height="4.252" x="77.698" y="104.301" class="st11" gorn="0.2.0.186"/><rect id="connector186pin" width="1.701" height="1.701" x="90.619" y="45.799" class="st11" gorn="0.2.0.187"/><rect id="connector187pin" width="1.701" height="1.701" x="93.499" y="45.799" class="st11" gorn="0.2.0.188"/><circle id="PIN_CONNECTOR_A7" cx="22.326" cy="115.975" r="5.255" class="st10" gorn="0.2.0.189"/><path id="connector189pin" d="M115.59,19.672L115.59,19.672c0.783,0,1.417,0.635,1.417,1.417v0c0,0.783-0.635,1.417-1.417,1.417h0c-0.783,0-1.417-0.635-1.417-1.417v0C114.172,20.307,114.807,19.672,115.59,19.672z" class="st11" gorn="0.2.0.190"/><path id="connector190pin" d="M28.109,124.433L28.109,124.433c0.783,0,1.417,0.635,1.417,1.417v0c0,0.783-0.635,1.417-1.417,1.417h0c-0.783,0-1.417-0.635-1.417-1.417v0C26.692,125.068,27.327,124.433,28.109,124.433z" class="st11" gorn="0.2.0.191"/><g id="g790" transform="matrix(0, -1, 1, 0, 8.27359, 120.194)"><g id="g792"><g id="g794" transform="matrix(-2.535182e-06 -1 1 -2.535182e-06 8.2735 120.1944)"><rect id="connector191pin" width=".709" height="2.126" x="63.879" y="54.898" class="st11" gorn="0.2.0.192.0.0.0"/></g></g></g><g id="g797" transform="matrix(0, -1, 1, 0, 9.69091, 121.612)"><g id="g799"><g id="g801" transform="matrix(-2.535182e-06 -1 1 -2.535182e-06 9.6908 121.6117)"><rect id="connector192pin" width=".709" height="2.126" x="65.297" y="54.898" class="st11" gorn="0.2.0.193.0.0.0"/></g></g></g><g id="g804" transform="matrix(0, -1, 1, 0, 11.1082, 123.029)"><g id="g806"><g id="g808" transform="matrix(-2.535182e-06 -1 1 -2.535182e-06 11.1081 123.029)"><rect id="connector193pin" width=".709" height="2.126" x="66.714" y="54.898" class="st11" gorn="0.2.0.194.0.0.0"/></g></g></g><g id="g811" transform="matrix(0, -1, 1, 0, 12.5256, 124.446)"><g id="g813"><g id="g815" transform="matrix(-2.535182e-06 -1 1 -2.535182e-06 12.5254 124.4463)"><rect id="connector194pin" width=".709" height="2.126" x="68.131" y="54.898" class="st11" gorn="0.2.0.195.0.0.0"/></g></g></g><g id="g818" transform="matrix(0, -1, 1, 0, 13.9429, 125.863)"><g id="g820"><g id="g822" transform="matrix(-2.535182e-06 -1 1 -2.535182e-06 13.9428 125.8637)"><rect id="connector195pin" width=".709" height="2.126" x="69.549" y="54.898" class="st11" gorn="0.2.0.196.0.0.0"/></g></g></g><g id="g825" transform="matrix(0, -1, 1, 0, 15.3602, 127.281)"><g id="g827"><g id="g829" transform="matrix(-2.535182e-06 -1 1 -2.535182e-06 15.3601 127.281)"><rect id="connector196pin" width=".709" height="2.126" x="70.966" y="54.898" class="st11" gorn="0.2.0.197.0.0.0"/></g></g></g><g id="g832" transform="matrix(0, -1, 1, 0, 16.7776, 128.698)"><g id="g834"><g id="g836" transform="matrix(-2.535182e-06 -1 1 -2.535182e-06 16.7774 128.6983)"><rect id="connector197pin" width=".709" height="2.126" x="72.383" y="54.898" class="st11" gorn="0.2.0.198.0.0.0"/></g></g></g><g id="g839" transform="matrix(0, -1, 1, 0, 18.1949, 130.116)"><g id="g841"><g id="g843" transform="matrix(-2.535182e-06 -1 1 -2.535182e-06 18.1949 130.1158)"><rect id="connector198pin" width=".709" height="2.126" x="73.801" y="54.898" class="st11" gorn="0.2.0.199.0.0.0"/></g></g></g><g id="g846" transform="matrix(0, -1, 1, 0, 19.6122, 131.532)"><g id="g848"><g id="g850" transform="matrix(-2.535182e-06 -1 1 -2.535182e-06 19.6119 131.5328)"><rect id="connector199pin" width=".709" height="2.126" x="75.218" y="54.898" class="st11" gorn="0.2.0.200.0.0.0"/></g></g></g><g id="g853" transform="matrix(0, -1, 1, 0, 21.0295, 132.95)"><g id="g855"><g id="g857" transform="matrix(-2.535182e-06 -1 1 -2.535182e-06 21.0296 132.9505)"><rect id="connector200pin" width=".709" height="2.126" x="76.636" y="54.898" class="st11" gorn="0.2.0.201.0.0.0"/></g></g></g><g id="g860" transform="matrix(0, -1, 1, 0, 22.4469, 134.367)"><g id="g862"><g id="g864" transform="matrix(-2.535182e-06 -1 1 -2.535182e-06 22.4465 134.3674)"><rect id="connector201pin" width=".709" height="2.126" x="78.052" y="54.898" class="st11" gorn="0.2.0.202.0.0.0"/></g></g></g><g id="g867" transform="matrix(0, -1, 1, 0, 23.8642, 135.785)"><g id="g869"><g id="g871" transform="matrix(-2.535182e-06 -1 1 -2.535182e-06 23.8642 135.7851)"><rect id="connector202pin" width=".709" height="2.126" x="79.47" y="54.898" class="st11" gorn="0.2.0.203.0.0.0"/></g></g></g><g id="g874" transform="matrix(-1, 0, 0, -1, 163.759, 107.81)"><g id="g876"><rect id="connector203pin" width="2.126" height=".709" x="80.816" y="53.551" class="st11" gorn="0.2.0.204.0.0"/></g></g><g id="g879" transform="matrix(-1, 0, 0, -1, 163.759, 104.975)"><g id="g881"><rect id="connector204pin" width="2.126" height=".709" x="80.816" y="52.133" class="st11" gorn="0.2.0.205.0.0"/></g></g><g id="g884" transform="matrix(-1, 0, 0, -1, 163.759, 102.141)"><g id="g886"><rect id="connector205pin" width="2.126" height=".709" x="80.816" y="50.716" class="st11" gorn="0.2.0.206.0.0"/></g></g><g id="g889" transform="matrix(-1, 0, 0, -1, 163.759, 99.306)"><g id="g891"><rect id="connector206pin" width="2.126" height=".709" x="80.816" y="49.299" class="st11" gorn="0.2.0.207.0.0"/></g></g><g id="g894" transform="matrix(-1, 0, 0, -1, 163.759, 96.4714)"><g id="g896"><rect id="connector207pin" width="2.126" height=".709" x="80.816" y="47.881" class="st11" gorn="0.2.0.208.0.0"/></g></g><g id="g899" transform="matrix(-1, 0, 0, -1, 163.759, 93.6367)"><g id="g901"><rect id="connector208pin" width="2.126" height=".709" x="80.816" y="46.464" class="st11" gorn="0.2.0.209.0.0"/></g></g><g id="g904" transform="matrix(-1, 0, 0, -1, 163.759, 90.8021)"><g id="g906"><rect id="connector209pin" width="2.126" height=".709" x="80.816" y="45.047" class="st11" gorn="0.2.0.210.0.0"/></g></g><g id="g909" transform="matrix(-1, 0, 0, -1, 163.759, 87.9674)"><g id="g911"><rect id="connector210pin" width="2.126" height=".709" x="80.816" y="43.63" class="st11" gorn="0.2.0.211.0.0"/></g></g><g id="g914" transform="matrix(-1, 0, 0, -1, 163.759, 85.1328)"><g id="g916"><rect id="connector211pin" width="2.126" height=".709" x="80.816" y="42.212" class="st11" gorn="0.2.0.212.0.0"/></g></g><g id="g919" transform="matrix(-1, 0, 0, -1, 163.759, 82.2982)"><g id="g921"><rect id="connector212pin" width="2.126" height=".709" x="80.816" y="40.795" class="st11" gorn="0.2.0.213.0.0"/></g></g><g id="g924" transform="matrix(-1, 0, 0, -1, 163.759, 79.4635)"><g id="g926"><rect id="connector213pin" width="2.126" height=".709" x="80.816" y="39.377" class="st11" gorn="0.2.0.214.0.0"/></g></g><g id="g929" transform="matrix(-1, 0, 0, -1, 163.759, 76.6289)"><g id="g931"><rect id="connector214pin" width="2.126" height=".709" x="80.816" y="37.96" class="st11" gorn="0.2.0.215.0.0"/></g></g><g id="g934" transform="matrix(0, 1, -1, 0, 116.083, -43.565)"><g id="g936"><g id="g938" transform="matrix(2.535182e-06 1 -1 2.535182e-06 116.0832 -43.5656)"><rect id="connector215pin" width=".709" height="2.126" x="79.47" y="35.196" class="st11" gorn="0.2.0.216.0.0.0"/></g></g></g><g id="g941" transform="matrix(0, 1, -1, 0, 114.666, -42.1476)"><g id="g943"><g id="g945" transform="matrix(2.535182e-06 1 -1 2.535182e-06 114.6656 -42.1479)"><rect id="connector216pin" width=".709" height="2.126" x="78.052" y="35.196" class="st11" gorn="0.2.0.217.0.0.0"/></g></g></g><g id="g948" transform="matrix(0, 1, -1, 0, 113.249, -40.7303)"><g id="g950"><g id="g952" transform="matrix(2.535182e-06 1 -1 2.535182e-06 113.2487 -40.731)"><rect id="connector217pin" width=".709" height="2.126" x="76.636" y="35.196" class="st11" gorn="0.2.0.218.0.0.0"/></g></g></g><g id="g955" transform="matrix(0, 1, -1, 0, 111.832, -39.313)"><g id="g957"><g id="g959" transform="matrix(2.535182e-06 1 -1 2.535182e-06 111.831 -39.3133)"><rect id="connector218pin" width=".709" height="2.126" x="75.218" y="35.196" class="st11" gorn="0.2.0.219.0.0.0"/></g></g></g><g id="g962" transform="matrix(0, 1, -1, 0, 110.414, -37.8957)"><g id="g964"><g id="g966" transform="matrix(2.535182e-06 1 -1 2.535182e-06 110.414 -37.8963)"><rect id="connector219pin" width=".709" height="2.126" x="73.801" y="35.196" class="st11" gorn="0.2.0.220.0.0.0"/></g></g></g><g id="g969" transform="matrix(0, 1, -1, 0, 108.997, -36.4784)"><g id="g971"><g id="g973" transform="matrix(2.535182e-06 1 -1 2.535182e-06 108.9965 -36.4788)"><rect id="connector220pin" width=".709" height="2.126" x="72.383" y="35.196" class="st11" gorn="0.2.0.221.0.0.0"/></g></g></g><g id="g976" transform="matrix(0, 1, -1, 0, 107.58, -35.061)"><g id="g978"><g id="g980" transform="matrix(2.535182e-06 1 -1 2.535182e-06 107.5792 -35.0615)"><rect id="connector221pin" width=".709" height="2.126" x="70.966" y="35.196" class="st11" gorn="0.2.0.222.0.0.0"/></g></g></g><g id="g983" transform="matrix(0, 1, -1, 0, 106.163, -33.6437)"><g id="g985"><g id="g987" transform="matrix(2.535182e-06 1 -1 2.535182e-06 106.1619 -33.6442)"><rect id="connector222pin" width=".709" height="2.126" x="69.549" y="35.196" class="st11" gorn="0.2.0.223.0.0.0"/></g></g></g><g id="g990" transform="matrix(0, 1, -1, 0, 104.745, -32.2263)"><g id="g992"><g id="g994" transform="matrix(2.535182e-06 1 -1 2.535182e-06 104.7445 -32.2268)"><rect id="connector223pin" width=".709" height="2.126" x="68.131" y="35.196" class="st11" gorn="0.2.0.224.0.0.0"/></g></g></g><g id="g997" transform="matrix(0, 1, -1, 0, 103.328, -30.809)"><g id="g999"><g id="g1001" transform="matrix(2.535182e-06 1 -1 2.535182e-06 103.3272 -30.8095)"><rect id="connector224pin" width=".709" height="2.126" x="66.714" y="35.196" class="st11" gorn="0.2.0.225.0.0.0"/></g></g></g><g id="g1004" transform="matrix(0, 1, -1, 0, 101.91, -29.3917)"><g id="g1006"><g id="g1008" transform="matrix(2.535182e-06 1 -1 2.535182e-06 101.9099 -29.3922)"><rect id="connector225pin" width=".709" height="2.126" x="65.297" y="35.196" class="st11" gorn="0.2.0.226.0.0.0"/></g></g></g><g id="g1011" transform="matrix(0, 1, -1, 0, 100.493, -27.9744)"><g id="g1013"><g id="g1015" transform="matrix(2.535182e-06 1 -1 2.535182e-06 100.4926 -27.9749)"><rect id="connector226pin" width=".709" height="2.126" x="63.879" y="35.196" class="st11" gorn="0.2.0.227.0.0.0"/></g></g></g><rect id="connector227pin" width="2.126" height=".709" x="61.116" y="37.96" class="st11" gorn="0.2.0.228"/><rect id="connector228pin" width="2.126" height=".709" x="61.116" y="39.377" class="st11" gorn="0.2.0.229"/><rect id="connector229pin" width="2.126" height=".709" x="61.116" y="40.795" class="st11" gorn="0.2.0.230"/><rect id="connector230pin" width="2.126" height=".709" x="61.116" y="42.212" class="st11" gorn="0.2.0.231"/><rect id="connector231pin" width="2.126" height=".709" x="61.116" y="43.63" class="st11" gorn="0.2.0.232"/><rect id="connector232pin" width="2.126" height=".709" x="61.116" y="45.047" class="st11" gorn="0.2.0.233"/><rect id="connector233pin" width="2.126" height=".709" x="61.116" y="46.464" class="st11" gorn="0.2.0.234"/><rect id="connector234pin" width="2.126" height=".709" x="61.116" y="47.881" class="st11" gorn="0.2.0.235"/><rect id="connector235pin" width="2.126" height=".709" x="61.116" y="49.299" class="st11" gorn="0.2.0.236"/><rect id="connector236pin" width="2.126" height=".709" x="61.116" y="50.716" class="st11" gorn="0.2.0.237"/><rect id="connector237pin" width="2.126" height=".709" x="61.116" y="52.133" class="st11" gorn="0.2.0.238"/><rect id="connector238pin" width="2.126" height=".709" x="61.116" y="53.551" class="st11" gorn="0.2.0.239"/><rect id="connector239pin" width="13.323" height="13.323" x="65.368" y="39.448" class="st11" gorn="0.2.0.240"/><path id="connector240pin" d="M115.95,124.433L115.95,124.433c0.783,0,1.417,0.635,1.417,1.417v0c0,0.783-0.635,1.417-1.417,1.417h0c-0.783,0-1.417-0.635-1.417-1.417v0C114.532,125.068,115.167,124.433,115.95,124.433z" class="st11" gorn="0.2.0.241"/><g id="g1032" transform="matrix(0, -1, 1, 0, -5.37804, 195.068)"><g id="g1034"><g id="g1036" transform="matrix(-2.535182e-06 -1 1 -2.535182e-06 -5.3782 195.0695)"><rect id="connector241pin" width="1.871" height="2.551" x="93.91" y="98.948" class="st11" gorn="0.2.0.242.0.0.0"/></g></g></g><g id="g1039" transform="matrix(0, -1, 1, 0, 0.829836, 201.276)"><g id="g1041"><g id="g1043" transform="matrix(-2.535182e-06 -1 1 -2.535182e-06 0.8296 201.2773)"><rect id="connector242pin" width="1.871" height="2.551" x="100.118" y="98.948" class="st11" gorn="0.2.0.243.0.0.0"/></g></g></g><g id="g1046" transform="matrix(0, -1, 1, 0, 4.65661, 197.449)"><g id="g1048"><g id="g1050" transform="matrix(-2.535182e-06 -1 1 -2.535182e-06 4.6564 197.4504)"><rect id="connector243pin" width="1.871" height="2.551" x="100.118" y="95.121" class="st11" gorn="0.2.0.244.0.0.0"/></g></g></g><g id="g1053" transform="matrix(0, -1, 1, 0, -1.55127, 191.241)"><g id="g1055"><g id="g1057" transform="matrix(-2.535182e-06 -1 1 -2.535182e-06 -1.5514 191.2426)"><rect id="connector244pin" width="1.871" height="2.551" x="93.91" y="95.121" class="st11" gorn="0.2.0.245.0.0.0"/></g></g></g><g id="g1060" transform="matrix(-1, 0, 0, -1, 95.3899, 101.94)"><g id="g1062"><rect id="connector245pin" width="2.268" height="2.268" x="46.561" y="49.836" class="st11" gorn="0.2.0.246.0.0"/></g></g><g id="g1065" transform="matrix(-1, 0, 0, -1, 86.886, 101.94)"><g id="g1067"><rect id="connector246pin" width="2.268" height="2.268" x="42.309" y="49.836" class="st11" gorn="0.2.0.247.0.0"/></g></g><circle id="connector260pin" cx="104.789" cy="129.977" r="5.255" class="st10" gorn="0.2.0.261"/></g><g id="g1071" transform="matrix(1, 0, 0, 1, -1.42142, 66.2682)"><g id="sewalli" gorn="0.2.1.0"><g id="g1074" transform="matrix(0, -1, 1, 0, 1.134, 14.457)"><g id="g1076"><path id="PWR_0" d="M3.118,6.661c0-2.583,2.094-4.677,4.677-4.677s4.677,2.094,4.677,4.677s-2.094,4.677-4.677,4.677S3.118,9.245,3.118,6.661z M7.795,13.323c4.305,0,7.795-3.49,7.795-7.795l0-4.534c-2.562-0.276-5.16-0.427-7.795-0.427S2.562,0.718,0,0.994v4.534C0,9.833,3.49,13.323,7.795,13.323z" class="st11 sim-pin"><title id="title1079">3.3V, +3v3</title></path></g></g></g></g><g id="g1081" transform="matrix(1, 0, 0, 1, 96.971, 9.26021)"><g id="sewalli_1_" gorn="0.2.2.0"><g id="g1084" transform="matrix(0.866025, 0.5, -0.5, 0.866025, 4.37516, -3.00528)"><g id="g1086"><path id="PWR_2" d="M3.118,6.661c0-2.583,2.094-4.677,4.677-4.677s4.677,2.094,4.677,4.677s-2.094,4.677-4.677,4.677S3.118,9.245,3.118,6.661z M7.795,13.323c4.305,0,7.795-3.49,7.795-7.795l0-4.534c-2.562-0.276-5.16-0.427-7.795-0.427S2.562,0.718,0,0.994l0,4.534C0,9.833,3.49,13.323,7.795,13.323z" class="st11 sim-pin"><title id="title1089">3.3V, +3v3</title></path></g></g></g></g><g id="g1091" transform="matrix(1, 0, 0, 1, 60.6905, 117.405)"><g id="jstph2" gorn="0.2.3.0"><g id="g1094" transform="matrix(-1, 0, 0, -1, 22.677, 25.512)"><g id="g1096"><g id="g1098"><polygon id="polygon1100" points="19.843 0 2.835 0 2.835 2.126 0 2.126 0 17.008 22.677 17.008 22.677 2.126 19.843 2.126" class="st14"/><rect id="rect1102" width="2.835" height="8.504" x="4.252" y="5.669"/><rect id="rect1104" width="2.835" height="8.504" x="15.591" y="5.669"/><rect id="rect1106" width="2.835" height="2.835" x="4.252" y="14.173" class="st15"/><rect id="rect1108" width="2.835" height="2.835" x="15.591" y="14.173" class="st15"/><rect id="rect1110" width="2.268" height="4.252" x="0" y="17.008" class="st15"/><rect id="rect1112" width="2.268" height="4.252" x="20.409" y="17.008" class="st15"/></g></g></g></g></g><g id="g1114" transform="matrix(1, 0, 0, 1, 60.6905, 1.26145)"><g id="_x34_uconn_x5F_20329_x5F_v2" gorn="0.2.13.0"><g id="g1117" transform="matrix(-1, 0, 0, -1, 22.677, 16.654)"><g id="g1119"><g id="g1121"><rect id="rect1123" width="22.677" height="3.969" x="0" y="7.157" class="st18"/><rect id="rect1125" width=".567" height="3.402" x="11.055" y="0" class="st16"/><rect id="rect1127" width=".567" height="3.402" x="12.898" y="0" class="st16"/><rect id="rect1129" width=".567" height="3.402" x="14.74" y="0" class="st16"/><rect id="rect1131" width=".567" height="3.402" x="9.213" y="0" class="st16"/><rect id="rect1133" width=".567" height="3.402" x="7.37" y="0" class="st16"/><rect id="rect1135" width="14.173" height=".709" x="4.252" y="1.489" class="st18"/><rect id="rect1137" width="14.173" height="2.976" x="4.252" y="1.771"/><polygon id="polygon1139" points="17.008 1.347 17.008 3.473 14.74 3.473 14.74 4.182 13.323 4.182 13.323 1.63 9.354 1.63 9.354 4.182 7.937 4.182 7.937 3.473 5.669 3.473 5.669 1.347 .567 1.347 .567 14.953 22.11 14.953 22.11 1.347" class="st16"/><polygon id="polygon1141" points="5.811 12.119 3.827 12.119 4.11 7.867 5.527 7.867"/><polygon id="polygon1143" points="18.85 12.119 16.866 12.119 17.149 7.867 18.567 7.867"/><polygon id="polygon1145" points="20.976 16.654 1.701 16.653 1.134 14.953 21.543 14.953" class="st19"/><polygon id="polygon1147" points=".567 16.653 0 16.653 .567 14.953 1.134 14.953" class="st18"/><polygon id="polygon1149" points="22.677 16.654 22.11 16.654 21.543 14.953 22.11 14.953" class="st18"/></g></g></g></g></g><g id="g1151" transform="matrix(1, 0, 0, 1, 126.024, 88.7054)"><g id="sewalli_2_" gorn="0.2.17.0"><g id="g1154" transform="matrix(-0.34202, 0.939693, -0.939693, -0.34202, 16.7215, 1.6145)"><g id="g1156"><path id="PIN_9" d="M3.118,6.661c0-2.583,2.094-4.677,4.677-4.677s4.677,2.094,4.677,4.677s-2.094,4.677-4.677,4.677S3.118,9.245,3.118,6.661z M7.795,13.323c4.305,0,7.795-3.49,7.795-7.795l0-4.534c-2.562-0.276-5.16-0.427-7.795-0.427C5.16,0.567,2.562,0.718,0,0.994l0,4.534C0,9.833,3.49,13.323,7.795,13.323z" class="st11 sim-pin"><title id="title1159">A9 - PMW</title></path></g></g></g></g><g id="g1161" transform="matrix(1, 0, 0, 1, 31.316, 9.44021)"><g id="sewalli_3_" gorn="0.2.19.0"><g id="g1164" transform="matrix(0.866025, -0.5, 0.5, 0.866025, -2.28635, 4.79023)"><g id="g1166"><path id="GND_0" d="M3.118,6.661c0-2.583,2.094-4.677,4.677-4.677c2.583,0,4.677,2.094,4.677,4.677s-2.094,4.677-4.677,4.677S3.118,9.245,3.118,6.661z M7.795,13.323c4.305,0,7.795-3.49,7.795-7.795l0-4.534c-2.562-0.276-5.16-0.427-7.795-0.427C5.16,0.567,2.562,0.718,0,0.994l0,4.534C0,9.833,3.49,13.323,7.795,13.323z" class="st11 sim-pin"><title id="title1169">Ground</title></path></g></g></g></g><g id="g1171" transform="matrix(1, 0, 0, 1, 129.889, 66.2682)"><g id="sewalli_4_" gorn="0.2.20.0"><g id="g1174" transform="matrix(0, 1, -1, 0, 14.457, -1.134)"><g id="g1176"><path id="GND_2" d="M3.118,6.661c0-2.583,2.094-4.677,4.677-4.677s4.677,2.094,4.677,4.677s-2.094,4.677-4.677,4.677S3.118,9.245,3.118,6.661z M7.795,13.323c4.305,0,7.795-3.49,7.795-7.795l0-4.534c-2.562-0.276-5.16-0.427-7.795-0.427S2.562,0.718,0,0.994v4.534C0,9.833,3.49,13.323,7.795,13.323z" class="st11 sim-pin"><title id="title1179">Ground</title></path></g></g></g></g><g id="g1181" transform="matrix(1, 0, 0, 1, 31.496, 123.276)"><g id="sewalli_5_" gorn="0.2.21.0"><g id="g1184" transform="matrix(-0.866025, -0.5, 0.5, -0.866025, 11.2159, 16.3283)"><g id="g1186"><path id="GND_1" d="M3.118,6.661c0-2.583,2.094-4.677,4.677-4.677c2.583,0,4.677,2.094,4.677,4.677s-2.094,4.677-4.677,4.677S3.118,9.245,3.118,6.661z M7.795,13.323c4.305,0,7.795-3.49,7.795-7.795l0-4.534c-2.562-0.276-5.16-0.427-7.795-0.427S2.562,0.718,0,0.994l0,4.534C0,9.833,3.49,13.323,7.795,13.323z" class="st11 sim-pin"><title id="title1189">Ground</title></path></g></g></g></g><g id="g1191" transform="matrix(1, 0, 0, 1, 92.6186, 81.8273)"><g id="msop08" gorn="0.2.22.0"><g id="g1194" transform="matrix(0, -1, 1, 0, -2.69302, 11.197)"><g id="g1196"><g id="g1198" transform="matrix(-2.535182e-06 -1 1 -2.535182e-06 -5.4464 8.4444)"><rect id="rect1200" width="13.89" height=".85" x="-5.446" y="6.52" class="st16"/></g><g id="g1202" transform="matrix(-2.535182e-06 -1 1 -2.535182e-06 -3.6044 10.2864)"><rect id="rect1204" width="13.89" height=".85" x="-3.604" y="6.52" class="st16"/></g><g id="g1206" transform="matrix(-2.535182e-06 -1 1 -2.535182e-06 -1.7614 12.1294)"><rect id="rect1208" width="13.89" height=".85" x="-1.761" y="6.52" class="st16"/></g><g id="g1210" transform="matrix(-2.535182e-06 -1 1 -2.535182e-06 0.0806 13.9714)"><rect id="rect1212" width="13.89" height=".85" x=".081" y="6.52" class="st16"/></g><path id="path1214" d="M8.504,3.229v7.37c0,0.313-0.254,0.567-0.567,0.567h-7.37C0.254,11.166,0,10.912,0,10.599v-7.37c0-0.313,0.254-0.567,0.567-0.567h7.37C8.25,2.662,8.504,2.916,8.504,3.229z" class="st15"/><circle id="circle1216" cx="1.417" cy="9.748" r=".709"/></g></g></g></g><g id="g1218" transform="matrix(1, 0, 0, 1, 66.7852, 71.4995)"><g id="lga16_3x3mm" gorn="0.2.23.0"><g id="g1221" transform="matrix(0, 1, -1, 0, 9.64195, -0.99198)"><g id="g1223"><g id="g1225" transform="matrix(2.535182e-06 1 -1 2.535182e-06 10.7806 -1.9854)"><rect id="rect1227" width="8.504" height="8.504" x="2.131" y=".146" class="st15"/></g></g></g></g></g><g id="g1229" transform="matrix(1, 0, 0, 1, 126.024, 43.8312)"><g id="sewalli_6_" gorn="0.2.24.0"><g id="g1232" transform="matrix(0.34202, 0.939693, -0.939693, 0.34202, 11.389, -2.94224)"><g id="g1234"><path id="PIN_10" d="M3.118,6.661c0-2.583,2.094-4.677,4.677-4.677c2.583,0,4.677,2.094,4.677,4.677c0,2.583-2.094,4.677-4.677,4.677S3.118,9.245,3.118,6.661z M7.795,13.323c4.305,0,7.795-3.49,7.795-7.795l0-4.534c-2.562-0.276-5.16-0.427-7.795-0.427S2.562,0.718,0,0.994l0,4.534C0,9.833,3.49,13.323,7.795,13.323z" class="st11 sim-pin"><title id="title1237">A10 - PMW</title></path></g></g></g></g><g id="g1239" transform="matrix(1, 0, 0, 1, 114.622, 23.9716)"><g id="sewalli_7_" gorn="0.2.25.0"><g id="g1242" transform="matrix(0.642788, 0.766044, -0.766044, 0.642788, 7.88767, -3.59214)"><g id="g1244"><path id="PIN_11" d="M3.118,6.661c0-2.583,2.094-4.677,4.677-4.677s4.677,2.094,4.677,4.677c0,2.583-2.094,4.677-4.677,4.677S3.118,9.245,3.118,6.661z M7.795,13.323c4.305,0,7.795-3.49,7.795-7.795l0-4.534c-2.562-0.276-5.16-0.427-7.795-0.427S2.562,0.718,0,0.994l0,4.534C0,9.833,3.49,13.323,7.795,13.323z" class="st11 sim-pin"><title id="title1247">A11 - PMW</title></path></g></g></g></g><g id="g1249" transform="matrix(1, 0, 0, 1, 114.622, 108.565)"><g id="sewalli_8_" gorn="0.2.26.0"><g id="g1252" transform="matrix(-0.642788, 0.766044, -0.766044, -0.642788, 17.9094, 4.97174)"><g id="g1254"><path id="PIN_8" d="M3.118,6.661c0-2.583,2.094-4.677,4.677-4.677c2.583,0,4.677,2.094,4.677,4.677s-2.094,4.677-4.677,4.677S3.118,9.245,3.118,6.661z M7.795,13.323c4.305,0,7.795-3.49,7.795-7.795l0-4.534c-2.562-0.276-5.16-0.427-7.795-0.427S2.562,0.718,0,0.994l0,4.534C0,9.833,3.49,13.323,7.795,13.323z" class="st11 sim-pin"><title id="title1257">A8 - PMW</title></path></g></g></g></g><g id="g1259" transform="matrix(1, 0, 0, 1, 87.8976, 7.45574)"><g id="_x30_805-led-red" gorn="0.2.27.0"><path id="path1262" d="M3.543,0.282v5.103c0,0.156-0.127,0.283-0.283,0.283H0.283C0.127,5.668,0,5.541,0,5.385V0.283C0,0.126,0.127,0,0.283,0H3.26C3.416-0.001,3.543,0.126,3.543,0.282z" class="st16"/><rect style="fill:#000" id="SERIAL_LED" width="3.543" height="3.543" x="0" y="1.062" class="st22"/><circle id="circle1265" cx="1.772" cy="2.833" r=".567" class="st23"/></g></g><g id="g1267" transform="matrix(1, 0, 0, 1, 109.902, 91.0058)"><g id="led3535" gorn="0.2.28.0"><g id="g1270" transform="matrix(0.5, -0.866025, 0.866025, 0.5, -1.81567, 6.77619)"><g id="g1272"><g id="g1274" transform="matrix(0.5 -0.866 0.866 0.5 -1.816 6.7772)"><ellipse style="fill:#0dc300;filter:url(#neopixelglow)" id="LED6_OUTER" cx="4.961" cy="4.961" class="st25" rx="4.252" ry="4.252"><title id="title1277">NeoPixel 6</title></ellipse></g><path style="fill:rgba(255,255,255,.6);filter:url(#neopixelglow)" id="LED6" d="M 2, 5 m 0, 0 a 3,3 0 1,0 6,0 a 3,3 0 1,0 -6,0" class="st24"><title id="title1280">NeoPixel 6</title></path></g></g></g></g><g id="g1282" transform="matrix(1, 0, 0, 1, 91.5451, 110.083)"><g id="led3535_1_" gorn="0.2.29.0"><g id="g1285" transform="matrix(0.866025, -0.5, 0.5, 0.866025, -1.81567, 3.14484)"><g id="g1287"><g id="g1289" transform="matrix(0.866 -0.5 0.5 0.866 -1.8159 3.1453)"><ellipse style="fill:#6cb500;filter:url(#neopixelglow)" id="LED5_OUTER" cx="4.961" cy="4.961" class="st25" rx="4.252" ry="4.252"><title id="title1292">NeoPixel 5</title></ellipse></g><path style="fill:rgba(255,255,255,.6);filter:url(#neopixelglow)" id="LED5" d="M 2, 5 m 0, 0 a 3,3 0 1,0 6,0 a 3,3 0 1,0 -6,0" class="st24"><title id="title1295">NeoPixel 5</title></path></g></g></g></g><g id="g1297" transform="matrix(1, 0, 0, 1, 115.662, 68.6892)"><g id="led3535_2_" gorn="0.2.30.0"><g id="g1300" transform="matrix(0, -1, 1, 0, 0, 9.92102)"><g id="g1302"><circle style="fill:#00b530;filter:url(#neopixelglow)" id="LED7_OUTER" cx="4.961" cy="4.961" r="4.252" class="st25"><title id="title1305">NeoPixel 7</title></circle><path style="fill:rgba(255,255,255,.6);filter:url(#neopixelglow)" id="LED7" d="M 2, 5 m 0, 0 a 3,3 0 1,0 6,0 a 3,3 0 1,0 -6,0" class="st24"><title id="title1308">NeoPixel 7</title></path></g></g></g></g><g id="g1310" transform="matrix(1, 0, 0, 1, 109.542, 44.5728)"><g id="led3535_3_" gorn="0.2.31.0"><g id="g1313" transform="matrix(-0.5, -0.866025, 0.866025, -0.5, 3.14484, 11.7367)"><g id="g1315"><g id="g1317" transform="matrix(0.866 -0.5 0.5 0.866 -1.816 3.1451)"><ellipse style="fill:#0096a7;filter:url(#neopixelglow)" id="LED8_OUTER" cx="4.961" cy="4.961" class="st25" rx="4.252" ry="4.252"><title id="title1320">NeoPixel 8</title></ellipse></g><path style="fill:rgba(255,255,255,.6);filter:url(#neopixelglow)" id="LED8" d="M 2, 5 m 0, 0 a 3,3 0 1,0 6,0 a 3,3 0 1,0 -6,0" class="st24"><title id="title1323">NeoPixel 8</title></path></g></g></g></g><g id="g1325" transform="matrix(1, 0, 0, 1, 91.1851, 25.8554)"><g id="led3535_4_" gorn="0.2.32.0"><g id="g1328" transform="matrix(-0.866025, -0.5, 0.5, -0.866025, 6.77619, 11.7367)"><g id="g1330"><g id="g1332" transform="matrix(0.5 -0.866 0.866 0.5 -1.8162 6.7767)"><ellipse style="fill:#0027c3;filter:url(#neopixelglow)" id="LED9_OUTER" cx="4.961" cy="4.961" class="st25" rx="4.252" ry="4.252"><title id="title1335">NeoPixel 9</title></ellipse></g><path style="fill:rgba(255,255,255,.6);filter:url(#neopixelglow)" id="LED9" d="M 2, 5 m 0, 0 a 3,3 0 1,0 6,0 a 3,3 0 1,0 -6,0" class="st24"><title id="title1338">NeoPixel 9</title></path></g></g></g></g><g id="g1340" transform="matrix(1, 0, 0, 1, 42.2321, 25.4954)"><g id="led3535_5_" gorn="0.2.33.0"><g id="g1343" transform="matrix(-0.866025, 0.5, -0.5, -0.866025, 11.7367, 6.77619)"><g id="g1345"><g id="g1347" transform="matrix(0.866 -0.5 0.5 0.866 -1.8158 3.145)"><ellipse style="fill:#1600c3;filter:url(#neopixelglow)" id="LED0_OUTER" cx="4.961" cy="4.961" class="st25" rx="4.252" ry="4.252"><title id="title1350">NeoPixel 0</title></ellipse></g><path style="fill:rgba(255,255,255,.6);filter:url(#neopixelglow)" id="LED0" d="M 2, 5 m 0, 0 a 3,3 0 1,0 6,0 a 3,3 0 1,0 -6,0" class="st24"><title id="title1353">NeoPixel 0</title></path></g></g></g></g><g id="g1355" transform="matrix(1, 0, 0, 1, 24.9547, 43.8528)"><g id="led3535_6_" gorn="0.2.34.0"><g id="g1358" transform="matrix(-0.5, 0.866025, -0.866025, -0.5, 11.7367, 3.14484)"><g id="g1360"><g id="g1362" transform="matrix(0.5 -0.866 0.866 0.5 -1.8157 6.7765)"><ellipse style="fill:#8100b5;filter:url(#neopixelglow)" id="LED1_OUTER" cx="4.961" cy="4.961" class="st25" rx="4.252" ry="4.252"><title id="title1365">NeoPixel 1</title></ellipse></g><path style="fill:rgba(255,255,255,.6);filter:url(#neopixelglow)" id="LED1" d="M 2, 5 m 0, 0 a 3,3 0 1,0 6,0 a 3,3 0 1,0 -6,0" class="st24"><title id="title1368">NeoPixel 1</title></path></g></g></g></g><g id="g1370" transform="matrix(1, 0, 0, 1, 18.4756, 67.9692)"><g id="led3535_7_" gorn="0.2.35.0"><g id="g1373" transform="matrix(0, 1, -1, 0, 9.92102, 0)"><g id="g1375"><circle style="fill:#b50042;filter:url(#neopixelglow)" id="LED2_OUTER" cx="4.961" cy="4.961" r="4.252" class="st25"><title id="title1380">NeoPixel 2</title></circle><path style="fill:rgba(255,255,255,.6);filter:url(#neopixelglow)" id="LED2" d="M 2, 5 m 0, 0 a 3,3 0 1,0 6,0 a 3,3 0 1,0 -6,0" class="st24"><title id="title1383">NeoPixel 2</title></path></g></g></g></g><g id="g1385" transform="matrix(1, 0, 0, 1, 24.9547, 93.1658)"><g id="led3535_8_" gorn="0.2.36.0"><g id="g1388" transform="matrix(0.5, 0.866025, -0.866025, 0.5, 6.77619, -1.81567)"><g id="g1390"><g id="g1392" transform="matrix(0.866 -0.5 0.5 0.866 -1.8157 3.1452)"><ellipse style="fill:#c30000;filter:url(#neopixelglow)" id="LED3_OUTER" cx="4.961" cy="4.961" class="st25" rx="4.252" ry="4.252"><title id="title1395">NeoPixel 3</title></ellipse></g><path style="fill:rgba(255,255,255,.6);filter:url(#neopixelglow)" id="LED3" d="M 2, 5 m 0, 0 a 3,3 0 1,0 6,0 a 3,3 0 1,0 -6,0" class="st24"><title id="title1398">NeoPixel 3</title></path></g></g></g></g><g id="g1400" transform="matrix(1, 0, 0, 1, 44.0321, 110.803)"><g id="led3535_9_" gorn="0.2.37.0"><g id="g1403" transform="matrix(0.866025, 0.5, -0.5, 0.866025, 3.14484, -1.81567)"><g id="g1405"><g id="g1407" transform="matrix(0.5 -0.866 0.866 0.5 -1.8155 6.777)"><ellipse style="fill:#b55100;filter:url(#neopixelglow)" id="LED4_OUTER" cx="4.961" cy="4.961" class="st25" rx="4.252" ry="4.252"><title id="title1410">NeoPixel 4</title></ellipse></g><path style="fill:rgba(255,255,255,.6);filter:url(#neopixelglow)" id="LED4" d="M 2, 5 m 0, 0 a 3,3 0 1,0 6,0 a 3,3 0 1,0 -6,0" class="st24"><title id="title1413">NeoPixel 4</title></path></g></g></g></g><g id="g1415" transform="matrix(1, 0, 0, 1, 52.2575, 8.17574)"><g id="_x30_805-led-green" gorn="0.2.38.0"><path id="path1418" d="M3.543,0.282v5.103c0,0.156-0.127,0.283-0.283,0.283H0.283C0.127,5.668,0,5.541,0,5.385V0.283C0,0.126,0.127,0,0.283,0H3.26C3.416-0.001,3.543,0.126,3.543,0.282z" class="st16"/><rect id="PWR_LED" width="3.543" height="3.543" x="0" y="1.062" class="st27"/><circle id="circle1421" cx="1.772" cy="2.833" r=".567" class="st28"/></g></g><g id="g1423" transform="matrix(1, 0, 0, 1, 65.651, 62.1978)"><g id="btn_kmr2_4.6x2.8" gorn="0.2.52.0"><g id="g1426" transform="matrix(-1, 0, 0, -1, 12.756, 8.50399)"><g id="g1428"><g id="g1430"><polygon id="polygon1432" points="12.756 2.692 12.756 1.275 11.339 1.275 11.339 0 1.417 0 1.417 1.275 0 1.275 0 2.692 1.417 2.692 1.417 5.811 0 5.811 0 7.228 1.417 7.228 1.417 8.504 11.339 8.504 11.339 7.228 12.756 7.228 12.756 5.811 11.339 5.811 11.339 2.692" class="st16"/><circle id="circle1434" cx="6.378" cy="4.252" r="2.48" class="st29"/><rect id="rect1436" width=".567" height="8.504" x=".992" y="0" class="st18"/><rect id="rect1438" width=".567" height="8.504" x="11.197" y="0" class="st18"/></g></g></g></g></g><g id="g1440" transform="matrix(1, 0, 0, 1, 2.62271, 89.4254)"><g id="sewalli_9_" gorn="0.2.53.0"><g id="g1443" transform="matrix(-0.34202, -0.939693, 0.939693, -0.34202, 4.20196, 16.2653)"><g id="g1445"><path id="RX" d="M3.118,6.661c0-2.583,2.094-4.677,4.677-4.677c2.583,0,4.677,2.094,4.677,4.677s-2.094,4.677-4.677,4.677S3.118,9.245,3.118,6.661z M7.795,13.323c4.305,0,7.795-3.49,7.795-7.795l0-4.534c-2.562-0.276-5.16-0.427-7.795-0.427C5.16,0.567,2.562,0.718,0,0.994l0,4.534C0,9.833,3.49,13.323,7.795,13.323z" class="st11 sim-pin"><title id="title1448">A6 - RX</title></path></g></g></g></g><g id="g1450" transform="matrix(1, 0, 0, 1, 13.845, 24.1516)"><g id="sewalli_10_" gorn="0.2.54.0"><g id="g1453" transform="matrix(0.642788, -0.766044, 0.766044, 0.642788, -2.31836, 8.35128)"><g id="g1455"><path id="SCL" d="M3.118,6.661c0-2.583,2.094-4.677,4.677-4.677s4.677,2.094,4.677,4.677s-2.094,4.677-4.677,4.677C5.212,11.338,3.118,9.245,3.118,6.661z M7.795,13.323c4.305,0,7.795-3.49,7.795-7.795l0-4.534c-2.562-0.276-5.16-0.427-7.795-0.427C5.16,0.567,2.562,0.718,0,0.994l0,4.534C0,9.833,3.49,13.323,7.795,13.323z" class="st11 sim-pin"><title id="title1458">A4 - SCL</title></path></g></g></g></g><g id="g1460" transform="matrix(1, 0, 0, 1, 2.44271, 43.8312)"><g id="sewalli_11_" gorn="0.2.55.0"><g id="g1463" transform="matrix(0.34202, -0.939693, 0.939693, 0.34202, -1.13049, 11.7085)"><g id="g1465"><path id="SDA" d="M3.118,6.661c0-2.583,2.094-4.677,4.677-4.677s4.677,2.094,4.677,4.677s-2.094,4.677-4.677,4.677S3.118,9.245,3.118,6.661z M7.795,13.323c4.305,0,7.795-3.49,7.795-7.795l0-4.534c-2.562-0.276-5.16-0.427-7.795-0.427C5.16,0.567,2.562,0.718,0,0.994l0,4.534C0,9.833,3.49,13.323,7.795,13.323z" class="st11 sim-pin"><title id="title1468">A5 - SDA</title></path></g></g></g></g><g id="g1470" transform="matrix(1, 0, 0, 1, 38.9033, 85.2833)"><g id="buzzer_smt_5mm" gorn="0.2.56.0"><g id="g1473"><rect id="rect1475" width="17.008" height="1.417" x="0" y="10.914" class="st16"/><rect id="rect1477" width="2.684" height="1.417" x="0" y="1.276" class="st16"/><path id="path1479" d="M15.733,14.173H1.559V0h11.906c0.886,0.886,1.382,1.382,2.268,2.268V14.173z" class="st15"/><circle id="circle1481" cx="8.362" cy="4.252" r="1.417"/></g></g></g><g id="g1483" transform="matrix(1, 0, 0, 1, 33.1775, 62.6257)"><g id="evq-q2_smaller" gorn="0.2.57.0"><g id="g1486" transform="matrix(-1, 0, 0, -1, 21.543, 17.008)"><g id="g1488"><g id="g1490"><polygon style="fill:#979797" id="BTN_A_OUTER" points="21.543 3.685 21.543 1.984 19.842 1.984 19.842 .001 1.701 .001 1.701 1.984 0 1.984 0 3.685 1.701 3.685 1.701 13.323 0 13.323 0 15.024 1.701 15.024 1.701 17.008 19.842 17.008 19.842 15.024 21.543 15.024 21.543 13.323 19.842 13.323 19.842 3.685" class="st16 sim-button-outer"/><circle style="fill:#000" id="BTN_A_INNER" cx="10.772" cy="8.504" r="4.252" class="st29 sim-button"/><rect id="rect1494" width=".567" height="17.008" x="1.465" y="0" class="st18"/><rect id="rect1496" width=".567" height="17.008" x="19.559" y="0" class="st18"/></g></g></g></g></g><g id="g1498" transform="matrix(1, 0, 0, 1, 89.3376, 62.6257)"><g id="evq-q2_smaller_1_" gorn="0.2.58.0"><g id="g1501" transform="matrix(-1, 0, 0, -1, 21.543, 17.008)"><g id="g1503"><g id="g1505"><polygon style="fill:#979797" id="BTN_B_OUTER" points="21.543 3.685 21.543 1.984 19.842 1.984 19.842 .001 1.701 .001 1.701 1.984 0 1.984 0 3.685 1.701 3.685 1.701 13.323 0 13.323 0 15.024 1.701 15.024 1.701 17.008 19.842 17.008 19.842 15.024 21.543 15.024 21.543 13.323 19.842 13.323 19.842 3.685" class="st16 sim-button-outer"/><circle style="fill:#000" id="BTN_B_INNER" cx="10.772" cy="8.504" r="4.252" class="st29 sim-button"/><rect id="rect1509" width=".567" height="17.008" x="1.465" y="0" class="st18"/><rect id="rect1511" width=".567" height="17.008" x="19.559" y="0" class="st18"/></g></g></g></g></g><g id="SLIDE" class="sim-slide-switch" transform="matrix(1, 0, 0, 1, 62.129, 89.9899)"><g id="eg1390" gorn="0.2.59.0"><g id="g1515"><rect id="rect1517" width="2.3" height="17" x="15.9" y="0" class="st16"/><rect id="rect1519" width="2.3" height="17" x="8.8" y="0" class="st16"/><rect id="rect1521" width="2.3" height="17" x="1.7" y="0" class="st16"/><rect id="rect1523" width="2.3" height="11.3" x="15.9" y="2.8" class="st18"/><rect id="rect1525" width="2.3" height="11.3" x="8.8" y="2.8" class="st18"/><rect id="rect1527" width="2.3" height="11.3" x="1.7" y="2.8" class="st18"/><rect id="SLIDE_HOVER" width="19.8" height="9.9" x="0" y="3.5"/><polygon id="polygon1530" points="1.4 10.6 1.4 13.5 18.4 13.5 18.4 10.6 19.8 10.6 19.8 6.4 18.4 6.4 18.4 3.5 14.2 3.5 14.2 6.4 5.7 6.4 5.7 3.5 1.4 3.5 1.4 6.4 0 6.4 0 10.6" class="st16"/><rect id="SLIDE_INNER" width="4.3" height="2.8" x="9.9" y="3.5" class="st15"/><circle id="circle1533" cx="7.8" cy="8.5" r="1.4" class="st18"/><circle id="circle1535" cx="12" cy="8.5" r="1.4" class="st18"/></g></g></g><g id="g1537" transform="matrix(1, 0, 0, 1, 91.4918, 45.9413)"><g id="_0402" gorn="0.2.60.0"><path id="path1540" d="M2.551,1.417H0.283C0.127,1.417,0,1.29,0,1.134v-0.85C0,0.127,0.127,0,0.283,0h2.268c0.157,0,0.283,0.127,0.283,0.283v0.85C2.835,1.29,2.708,1.417,2.551,1.417z" class="st16"/><rect id="rect1542" width="1.417" height="1.417" x=".709" y="0" class="st15"/></g></g><g id="g1544" transform="matrix(1, 0, 0, 1, 14.565, 109.285)"><g id="sewalli_12_" gorn="0.2.61.0"><g id="g1547" transform="matrix(-0.642788, -0.766044, 0.766044, -0.642788, 7.70335, 16.9152)"><g id="g1549"><path id="TX" d="M3.118,6.661c0-2.583,2.094-4.677,4.677-4.677c2.583,0,4.677,2.094,4.677,4.677s-2.094,4.677-4.677,4.677S3.118,9.245,3.118,6.661z M7.795,13.323c4.305,0,7.795-3.49,7.795-7.795l0-4.534c-2.562-0.276-5.16-0.427-7.795-0.427S2.562,0.718,0,0.994l0,4.534C0,9.833,3.49,13.323,7.795,13.323z" class="st11 sim-pin"><title id="title1552">A7 - TX</title></path></g></g></g></g><g id="g1554" transform="matrix(1, 0, 0, 1, 61.2714, 36.2235)"><g id="tqfn48_7mm" gorn="0.2.62.0"><rect id="rect1557" width="19.843" height="19.843" x=".802" y="0" class="st15"/></g></g><g id="g1559" transform="matrix(1, 0, 0, 1, 94.4057, 93.9161)"><g id="spw2430hr5h-b" gorn="0.2.63.0"><g id="g1562" transform="matrix(0, -1, 1, 0, -0.85001, 7.93699)"><g id="g1564"><g id="g1566"><path id="path1568" d="M0,8.079v-7.37C0,0.317,0.317,0,0.709,0h5.669c0.391,0,0.709,0.317,0.709,0.709v7.37c0,0.391-0.317,0.709-0.709,0.709l-5.669,0C0.317,8.787,0,8.47,0,8.079z" class="st18"/><path id="path1570" d="M0.425,0.709c0-0.156,0.127-0.284,0.283-0.284h5.67c0.156,0,0.283,0.128,0.283,0.284v7.37c0,0.156-0.127,0.284-0.283,0.284h-5.67c-0.156,0-0.283-0.128-0.283-0.284L0.425,0.709z" class="st16"/><circle id="circle1572" cx="3.543" cy="3.259" r=".709"/></g></g></g></g></g><g id="g1574" transform="matrix(1, 0, 0, 1, 43.3015, 49.8357)"><g id="als-pt19-315c" gorn="0.2.64.0"><g id="g1577" transform="matrix(-1, 0, 0, -1, 4.535, 2.268)"><g id="g1579"><g id="g1581"><path id="path1583" d="M4.252,2.268H0.283C0.127,2.268,0,2.141,0,1.984V0.283C0,0.127,0.127,0,0.283,0h3.969c0.157,0,0.283,0.127,0.283,0.283v1.701C4.535,2.141,4.409,2.268,4.252,2.268z" class="st16"/><rect id="rect1585" width="3.402" height="2.268" x=".567" y="0" class="st24"/><rect id="rect1587" width="1.701" height="1.701" x=".85" y=".283"/><circle id="circle1589" cx="1.701" cy="1.134" r=".354" class="st24"/></g></g></g></g></g><g id="g1591" transform="matrix(1, 0, 0, 1, 96.971, 123.276)"><g id="sewalli_13_" gorn="0.2.67.0"><g id="g1594" transform="matrix(-0.866025, 0.5, -0.5, -0.866025, 17.8774, 8.53279)"><g id="g1596"><path id="VBATT" d="M3.118,6.661c0-2.583,2.094-4.677,4.677-4.677s4.677,2.094,4.677,4.677s-2.094,4.677-4.677,4.677S3.118,9.245,3.118,6.661z M7.795,13.323c4.305,0,7.795-3.49,7.795-7.795l0-4.534c-2.562-0.276-5.16-0.427-7.795-0.427C5.16,0.567,2.562,0.718,0,0.994l0,4.534C0,9.833,3.49,13.323,7.795,13.323z" class="st11 sim-pin"><title id="title1599">Battery power</title></path></g></g></g></g></g><g id="g1601"><path id="path1603" d="M92.713,9.029c0.166,0.159,0.367,0.283,0.602,0.371s0.493,0.132,0.775,0.132h0.045c0.281,0,0.539-0.044,0.771-0.132c0.233-0.088,0.434-0.212,0.6-0.371c0.168-0.16,0.297-0.352,0.389-0.575s0.137-0.473,0.137-0.748V6.529h-3.85v1.177c0,0.275,0.047,0.524,0.141,0.748S92.545,8.869,92.713,9.029z M92.76,7.167h2.694v0.534c0,0.176-0.03,0.336-0.091,0.48c-0.061,0.146-0.148,0.268-0.264,0.369c-0.115,0.101-0.256,0.18-0.421,0.236s-0.353,0.085-0.562,0.085h-0.033c-0.205,0-0.39-0.028-0.555-0.085s-0.305-0.136-0.418-0.236c-0.113-0.102-0.201-0.224-0.262-0.369c-0.061-0.145-0.09-0.305-0.09-0.48V7.167z" class="st24"/><polygon id="polygon1605" points="96.059 10.759 95.762 9.868 95.212 9.973 95.394 10.577 92.182 10.577 92.182 11.21 96.059 11.21" class="st24"/><path id="path1607" d="M92.457,13.953c0.105,0.111,0.233,0.199,0.382,0.262c0.148,0.062,0.312,0.093,0.492,0.093h0.017c0.168,0,0.315-0.028,0.439-0.085c0.125-0.057,0.23-0.132,0.316-0.226s0.154-0.202,0.204-0.327s0.085-0.253,0.106-0.385l1.117,0.974h0.5v-2.256h-0.577v1.458l-1.114-0.936l-0.4,0.083v0.192c0,0.268-0.053,0.48-0.16,0.638c-0.105,0.158-0.258,0.237-0.455,0.237h-0.016c-0.188,0-0.336-0.061-0.445-0.182s-0.164-0.271-0.164-0.451c0-0.188,0.037-0.346,0.112-0.476c0.075-0.131,0.171-0.249,0.288-0.355l-0.451-0.396c-0.157,0.143-0.285,0.316-0.381,0.52c-0.098,0.204-0.146,0.441-0.146,0.713c0,0.183,0.029,0.352,0.088,0.506C92.268,13.708,92.35,13.841,92.457,13.953z" class="st24"/><path id="path1609" d="M48.127,13.701c0.174,0.15,0.381,0.269,0.622,0.353s0.503,0.126,0.79,0.126h0.055c0.286,0,0.548-0.041,0.787-0.123c0.238-0.083,0.444-0.199,0.616-0.35s0.307-0.33,0.404-0.539c0.097-0.209,0.146-0.438,0.146-0.688c0-0.253-0.049-0.484-0.146-0.693c-0.097-0.209-0.232-0.388-0.407-0.538s-0.381-0.268-0.622-0.353c-0.24-0.084-0.503-0.126-0.789-0.126h-0.055c-0.286,0-0.548,0.041-0.787,0.123c-0.238,0.083-0.443,0.199-0.616,0.35s-0.307,0.33-0.404,0.539s-0.146,0.438-0.146,0.688c0,0.253,0.049,0.483,0.146,0.692S47.953,13.552,48.127,13.701z M48.262,12.057c0.066-0.128,0.16-0.239,0.281-0.332c0.121-0.094,0.267-0.166,0.437-0.218c0.17-0.051,0.358-0.077,0.564-0.077h0.039c0.209,0,0.398,0.026,0.566,0.077c0.168,0.052,0.312,0.123,0.432,0.215s0.212,0.201,0.278,0.33c0.066,0.128,0.099,0.268,0.099,0.418s-0.033,0.289-0.099,0.418c-0.066,0.128-0.16,0.239-0.281,0.333c-0.121,0.093-0.267,0.167-0.437,0.22s-0.358,0.08-0.564,0.08h-0.038c-0.209,0-0.398-0.026-0.567-0.077c-0.168-0.052-0.312-0.123-0.432-0.215s-0.212-0.201-0.278-0.33c-0.066-0.128-0.099-0.268-0.099-0.418C48.163,12.326,48.196,12.186,48.262,12.057z" class="st24"/><path id="path1611" d="M48.999,9.582H48.57v0.622h2.915V9.582h-1.766c-0.202,0-0.359-0.05-0.473-0.151c-0.114-0.101-0.171-0.233-0.171-0.398s0.054-0.293,0.163-0.385c0.108-0.092,0.265-0.138,0.47-0.138h1.776V7.888h-1.953c-0.312,0-0.559,0.079-0.742,0.237c-0.184,0.157-0.275,0.377-0.275,0.659c0,0.198,0.049,0.36,0.146,0.487C48.758,9.397,48.871,9.502,48.999,9.582z" class="st24"/><path id="path1613" d="M102.939,49.416c0-0.642-0.257-1.261-0.708-1.725v-7.204c0-0.977-0.795-1.772-1.772-1.772c-0.977,0-1.771,0.795-1.771,1.772v7.204c-0.452,0.464-0.709,1.083-0.709,1.725c0,1.368,1.113,2.48,2.48,2.48S102.939,50.784,102.939,49.416z M100.459,51.187c-0.977,0-1.771-0.794-1.771-1.771c0-0.501,0.21-0.967,0.592-1.311l0.117-0.105v-7.512c0-0.586,0.477-1.063,1.062-1.063c0.587,0,1.063,0.477,1.063,1.063v7.512l0.117,0.105c0.381,0.344,0.591,0.809,0.591,1.311C102.23,50.393,101.436,51.187,100.459,51.187z" class="st24"/><path id="path1615" d="M101.097,48.252v-5.119h-1.275v5.12c-0.415,0.23-0.708,0.656-0.708,1.164c0,0.743,0.604,1.347,1.346,1.347c0.743,0,1.347-0.604,1.347-1.347C101.806,48.908,101.513,48.481,101.097,48.252z" class="st24"/><path id="path1617" d="M54.579,42.892c-2.138,0-4.135,1.154-5.211,3.011l-0.103,0.178l0.103,0.178c1.077,1.857,3.073,3.012,5.211,3.012s4.135-1.154,5.211-3.012l0.103-0.178l-0.103-0.178C58.714,44.046,56.717,42.892,54.579,42.892z M54.579,48.561c-1.817,0-3.519-0.945-4.491-2.48c0.972-1.535,2.673-2.48,4.491-2.48s3.519,0.945,4.491,2.48C58.098,47.616,56.396,48.561,54.579,48.561z" class="st24"/><path id="path1619" d="M54.579,43.955c-1.174,0-2.126,0.952-2.126,2.126c0,1.174,0.952,2.126,2.126,2.126c1.174,0,2.126-0.952,2.126-2.126C56.705,44.907,55.753,43.955,54.579,43.955z M54.579,47.144c-0.587,0-1.063-0.476-1.063-1.063c0-0.587,0.476-1.063,1.063-1.063c0.587,0,1.063,0.476,1.063,1.063C55.642,46.668,55.166,47.144,54.579,47.144z" class="st24"/><path id="path1621" d="M91.939,100.399c0-0.854-0.332-1.654-0.934-2.256c-1.205-1.203-3.304-1.203-4.511,0c-0.602,0.603-0.934,1.403-0.934,2.256c0,0.195,0.159,0.354,0.354,0.354s0.354-0.159,0.354-0.354c0-0.663,0.258-1.286,0.726-1.754c0.939-0.938,2.571-0.938,3.509,0c0.468,0.467,0.726,1.09,0.726,1.754c0,0.663-0.258,1.286-0.727,1.753l-1.421,1.422c-0.334,0.336-0.519,0.78-0.519,1.252c0,0.587-0.477,1.063-1.062,1.063c-0.587,0-1.063-0.477-1.063-1.063c0-0.195-0.159-0.354-0.354-0.354s-0.354,0.159-0.354,0.354c0,0.978,0.795,1.772,1.772,1.772c0.977,0,1.771-0.795,1.771-1.772c0-0.283,0.11-0.55,0.312-0.751l1.42-1.421C91.607,102.053,91.939,101.252,91.939,100.399z" class="st24"/><path id="path1623" d="M86.979,101.886c-0.195,0-0.354,0.159-0.354,0.354v0.521c0,0.195,0.159,0.354,0.354,0.354s0.354-0.159,0.354-0.354v-0.218c0.53-0.153,0.92-0.645,0.92-1.225c0-0.554-0.429-1.022-0.893-1.199c0.13-0.648,0.704-1.139,1.39-1.139c0.781,0,1.417,0.636,1.417,1.418c0,0.195,0.159,0.354,0.354,0.354s0.354-0.159,0.354-0.354c0-1.173-0.954-2.127-2.126-2.127s-2.126,0.954-2.126,2.127c0,0.195,0.159,0.354,0.354,0.354c0.213,0,0.565,0.273,0.565,0.565C87.545,101.632,87.291,101.886,86.979,101.886z" class="st24"/><path id="path1625" d="M51.591,101.308v1.695v3.43c-0.221-0.073-0.474-0.108-0.749-0.084c-0.827,0.072-1.497,0.614-1.497,1.209s0.67,1.019,1.497,0.947c0.827-0.072,1.497-0.614,1.497-1.209v-4.479l3.674-0.913v3.244c-0.221-0.073-0.474-0.108-0.748-0.084c-0.827,0.072-1.497,0.614-1.497,1.209c0,0.595,0.67,1.019,1.497,0.947c0.827-0.072,1.497-0.614,1.497-1.209v-4.293v-1.695v-0.001l-0.001,0.001L51.591,101.308z" class="st24"/><polygon id="polygon1627" points="34.595 75.12 34.595 67.138 29.612 71.129" class="st24"/><polygon id="polygon1629" points="109.463 67.138 109.463 75.12 114.447 71.129" class="st24"/></g><style id="style1631">svg.sim{margin-bottom:1em}.sim-button{pointer-events:none}.sim-button-outer:hover{stroke:gray;stroke-width:1px}.sim-slide-switch:hover #SLIDE_HOVER{stroke:gray;stroke-width:2px}</style><defs id="defs1633"><filter id="filterglow" width="120%" height="120%" x="-5%" y="-5%"><feGaussianBlur id="feGaussianBlur1636" result="glow" stdDeviation="5"/><feMerge id="feMerge1638"><feMergeNode id="feMergeNode1640" in="glow"/><feMergeNode id="feMergeNode1642" in="glow"/><feMergeNode id="feMergeNode1644" in="glow"/></feMerge></filter><filter id="neopixelglow" width="400%" height="400%" x="-200%" y="-200%"><feGaussianBlur id="feGaussianBlur1647" result="coloredBlur" stdDeviation="4.3"/><feMerge id="feMerge1649"><feMergeNode id="feMergeNode1651" in="coloredBlur"/><feMergeNode id="feMergeNode1653" in="SourceGraphic"/></feMerge></filter></defs></svg>