<svg xmlns="http://www.w3.org/2000/svg" xmlns:svg="http://www.w3.org/2000/svg" id="svg3336" width="498" height="406" class="sim" version="1" viewBox="0 0 498 406"><metadata id="metadata244"/><style id="style3338">svg.sim{margin-bottom:1em}.sim-button{pointer-events:none}.sim-button-outer:hover{stroke:gray;stroke-width:3px}.sim-pin:hover{stroke:#d4af37;stroke-width:2px}.sim-led-back:hover,.sim-led:hover{stroke:#a0a0a0;stroke-width:3px}.sim-led:hover{stroke:#ff7f7f}</style><defs id="defs3340"><filter id="filterglow" x="-5%" y="-5%"><feGaussianBlur id="feGaussianBlur3343" result="glow" stdDeviation="5"/><feMerge id="feMerge3345"><feMergeNode id="feMergeNode3347" in="glow"/><feMergeNode id="feMergeNode3349" in="glow"/><feMergeNode id="feMergeNode3351" in="glow"/></feMerge></filter><linearGradient id="gradient-pin-0" x1="0%" x2="0%" y1="0%" y2="100%"><stop id="stop3354" offset="0%" stop-color="#D4AF37"/><stop id="stop3356" offset="100%" stop-color="#D4AF37"/><stop id="stop3358" offset="100%" stop-color="#F50"/><stop id="stop3360" offset="100%" stop-color="#F50"/></linearGradient><linearGradient id="gradient-pin-1" x1="0%" x2="0%" y1="0%" y2="100%"><stop id="stop3363" offset="0%" stop-color="#D4AF37"/><stop id="stop3365" offset="100%" stop-color="#D4AF37"/><stop id="stop3367" offset="100%" stop-color="#F50"/><stop id="stop3369" offset="100%" stop-color="#F50"/></linearGradient><linearGradient id="gradient-pin-2" x1="0%" x2="0%" y1="0%" y2="100%"><stop id="stop3372" offset="0%" stop-color="#D4AF37"/><stop id="stop3374" offset="100%" stop-color="#D4AF37"/><stop id="stop3376" offset="100%" stop-color="#F50"/><stop id="stop3378" offset="100%" stop-color="#F50"/></linearGradient><linearGradient id="gradient-pin-3" x1="0%" x2="0%" y1="0%" y2="100%"><stop id="stop3381" offset="0%" stop-color="#D4AF37"/><stop id="stop3383" offset="100%" stop-color="#D4AF37"/><stop id="stop3385" offset="100%" stop-color="#F50"/><stop id="stop3387" offset="100%" stop-color="#F50"/></linearGradient><linearGradient id="gradient-pin-4" x1="0%" x2="0%" y1="0%" y2="100%"><stop id="stop3390" offset="0%" stop-color="#D4AF37"/><stop id="stop3392" offset="100%" stop-color="#D4AF37"/><stop id="stop3394" offset="100%" stop-color="#F50"/><stop id="stop3396" offset="100%" stop-color="#F50"/></linearGradient><linearGradient id="gradient-pin-5" x1="0%" x2="0%" y1="0%" y2="100%"><stop id="stop3399" offset="0%" stop-color="#D4AF37"/><stop id="stop3401" offset="100%" stop-color="#D4AF37"/><stop id="stop3403" offset="100%" stop-color="#F50"/><stop id="stop3405" offset="100%" stop-color="#F50"/></linearGradient><linearGradient id="gradient-pin-6" x1="0%" x2="0%" y1="0%" y2="100%"><stop id="stop3408" offset="0%" stop-color="#D4AF37"/><stop id="stop3410" offset="100%" stop-color="#D4AF37"/><stop id="stop3412" offset="100%" stop-color="#F50"/><stop id="stop3414" offset="100%" stop-color="#F50"/></linearGradient><linearGradient id="gradient-pin-7" x1="0%" x2="0%" y1="0%" y2="100%"><stop id="stop3417" offset="0%" stop-color="#D4AF37"/><stop id="stop3419" offset="100%" stop-color="#D4AF37"/><stop id="stop3421" offset="100%" stop-color="#F50"/><stop id="stop3423" offset="100%" stop-color="#F50"/></linearGradient><linearGradient id="gradient-pin-8" x1="0%" x2="0%" y1="0%" y2="100%"><stop id="stop3426" offset="0%" stop-color="#D4AF37"/><stop id="stop3428" offset="100%" stop-color="#D4AF37"/><stop id="stop3430" offset="100%" stop-color="#F50"/><stop id="stop3432" offset="100%" stop-color="#F50"/></linearGradient><linearGradient id="gradient-pin-9" x1="0%" x2="0%" y1="0%" y2="100%"><stop id="stop3435" offset="0%" stop-color="#D4AF37"/><stop id="stop3437" offset="100%" stop-color="#D4AF37"/><stop id="stop3439" offset="100%" stop-color="#F50"/><stop id="stop3441" offset="100%" stop-color="#F50"/></linearGradient><linearGradient id="gradient-pin-10" x1="0%" x2="0%" y1="0%" y2="100%"><stop id="stop3444" offset="0%" stop-color="#D4AF37"/><stop id="stop3446" offset="100%" stop-color="#D4AF37"/><stop id="stop3448" offset="100%" stop-color="#F50"/><stop id="stop3450" offset="100%" stop-color="#F50"/></linearGradient><linearGradient id="gradient-pin-11" x1="0%" x2="0%" y1="0%" y2="100%"><stop id="stop3453" offset="0%" stop-color="#D4AF37"/><stop id="stop3455" offset="100%" stop-color="#D4AF37"/><stop id="stop3457" offset="100%" stop-color="#F50"/><stop id="stop3459" offset="100%" stop-color="#F50"/></linearGradient><linearGradient id="gradient-pin-12" x1="0%" x2="0%" y1="0%" y2="100%"><stop id="stop3462" offset="0%" stop-color="#D4AF37"/><stop id="stop3464" offset="100%" stop-color="#D4AF37"/><stop id="stop3466" offset="100%" stop-color="#F50"/><stop id="stop3468" offset="100%" stop-color="#F50"/></linearGradient><linearGradient id="gradient-pin-13" x1="0%" x2="0%" y1="0%" y2="100%"><stop id="stop3471" offset="0%" stop-color="#D4AF37"/><stop id="stop3473" offset="100%" stop-color="#D4AF37"/><stop id="stop3475" offset="100%" stop-color="#F50"/><stop id="stop3477" offset="100%" stop-color="#F50"/></linearGradient><linearGradient id="gradient-pin-14" x1="0%" x2="0%" y1="0%" y2="100%"><stop id="stop3480" offset="0%" stop-color="#D4AF37"/><stop id="stop3482" offset="100%" stop-color="#D4AF37"/><stop id="stop3484" offset="100%" stop-color="#F50"/><stop id="stop3486" offset="100%" stop-color="#F50"/></linearGradient><linearGradient id="gradient-pin-15" x1="0%" x2="0%" y1="0%" y2="100%"><stop id="stop3489" offset="0%" stop-color="#D4AF37"/><stop id="stop3491" offset="100%" stop-color="#D4AF37"/><stop id="stop3493" offset="100%" stop-color="#F50"/><stop id="stop3495" offset="100%" stop-color="#F50"/></linearGradient><linearGradient id="gradient-pin-16" x1="0%" x2="0%" y1="0%" y2="100%"><stop id="stop3498" offset="0%" stop-color="#D4AF37"/><stop id="stop3500" offset="100%" stop-color="#D4AF37"/><stop id="stop3502" offset="100%" stop-color="#F50"/><stop id="stop3504" offset="100%" stop-color="#F50"/></linearGradient><linearGradient id="gradient-pin-17" x1="0%" x2="0%" y1="0%" y2="100%"><stop id="stop3507" offset="0%" stop-color="#D4AF37"/><stop id="stop3509" offset="100%" stop-color="#D4AF37"/><stop id="stop3511" offset="100%" stop-color="#F50"/><stop id="stop3513" offset="100%" stop-color="#F50"/></linearGradient><linearGradient id="gradient-pin-18" x1="0%" x2="0%" y1="0%" y2="100%"><stop id="stop3516" offset="0%" stop-color="#D4AF37"/><stop id="stop3518" offset="100%" stop-color="#D4AF37"/><stop id="stop3520" offset="100%" stop-color="#F50"/><stop id="stop3522" offset="100%" stop-color="#F50"/></linearGradient><linearGradient id="gradient-pin-19" x1="0%" x2="0%" y1="0%" y2="100%"><stop id="stop3525" offset="0%" stop-color="#D4AF37"/><stop id="stop3527" offset="100%" stop-color="#D4AF37"/><stop id="stop3529" offset="100%" stop-color="#F50"/><stop id="stop3531" offset="100%" stop-color="#F50"/></linearGradient><linearGradient id="gradient-pin-20" x1="0%" x2="0%" y1="0%" y2="100%"><stop id="stop3534" offset="0%" stop-color="#D4AF37"/><stop id="stop3536" offset="100%" stop-color="#D4AF37"/><stop id="stop3538" offset="100%" stop-color="#F50"/><stop id="stop3540" offset="100%" stop-color="#F50"/></linearGradient><linearGradient id="gradient-pin-21" x1="0%" x2="0%" y1="0%" y2="100%"><stop id="stop3543" offset="0%" stop-color="#D4AF37"/><stop id="stop3545" offset="100%" stop-color="#D4AF37"/><stop id="stop3547" offset="100%" stop-color="#F50"/><stop id="stop3549" offset="100%" stop-color="#F50"/></linearGradient><linearGradient id="gradient-pin-22" x1="0%" x2="0%" y1="0%" y2="100%"><stop id="stop3552" offset="0%" stop-color="#D4AF37"/><stop id="stop3554" offset="100%" stop-color="#D4AF37"/><stop id="stop3556" offset="100%" stop-color="#F50"/><stop id="stop3558" offset="100%" stop-color="#F50"/></linearGradient><linearGradient id="gradient-pin-23" x1="0%" x2="0%" y1="0%" y2="100%"><stop id="stop3561" offset="0%" stop-color="#D4AF37"/><stop id="stop3563" offset="100%" stop-color="#D4AF37"/><stop id="stop3565" offset="100%" stop-color="#F50"/><stop id="stop3567" offset="100%" stop-color="#F50"/></linearGradient><linearGradient id="gradient-pin-24" x1="0%" x2="0%" y1="0%" y2="100%"><stop id="stop3570" offset="0%" stop-color="#D4AF37"/><stop id="stop3572" offset="100%" stop-color="#D4AF37"/><stop id="stop3574" offset="100%" stop-color="#F50"/><stop id="stop3576" offset="100%" stop-color="#F50"/></linearGradient></defs><g id="g4372"><path id="path3578" d="M498 31.9C498 14.3 483.7 0 466.1 0H31.9C14.3 0 0 14.3 0 31.9v342.2C0 391.7 14.3 406 31.9 406h434.2c17.6 0 31.9-14.3 31.9-31.9V31.9zM14.3 206.7c-2.7 0-4.8-2.2-4.8-4.8 0-2.7 2.2-4.8 4.8-4.8 2.7 0 4.8 2.2 4.8 4.8.1 2.7-2.1 4.8-4.8 4.8zm471.9 0c-2.7 0-4.8-2.2-4.8-4.8 0-2.72.2-4.8 4.8-4.8 2.7 0 4.8 2.2 4.8 4.8 0 2.7-2.2 4.8-4.8 4.8z" class="sim-board"/><path id="path3580" d="M333.8 310.3H165.9c-8.3 0-15-6.7-15-15V127.5c0-8.3 6.7-15 15-15h167.8c8.3 0 15 6.7 15 15v167.8c.1 8.3-6.6 15-14.9 15z" class="sim-display"/><path id="path3582" fill="#FF3A54" d="M115 56.7L173.1 0H115m-.8 0H25.9C12.1 2.1 0 13.3 0 27.7v83.9L114.2 0z" class="sim-theme"/><path id="path3584" fill="#FF3A54" d="M173 27.9L202.5 0H173M54.1 242.4v31.7H22.4m423.8-109.5v-31.8h31.7" class="sim-theme"/><rect id="rect3588" width="10" height="20" x="200" y="113" fill="#202020" class="sim-led-back" rx="2" ry="2"/><rect id="rect3590" width="14" height="24" x="198" y="111" fill="#FF7F7F" class="sim-led" rx="3" ry="3"><title id="title3592">(1,0)</title></rect><rect id="rect3594" width="10" height="20" x="246" y="113" fill="#202020" class="sim-led-back" rx="2" ry="2"/><rect id="rect3596" width="10" height="20" x="292" y="113" fill="#202020" class="sim-led-back" rx="2" ry="2"/><rect id="rect3598" width="14" height="24" x="290" y="111" fill="#FF7F7F" class="sim-led" rx="3" ry="3"><title id="title3600">(3,0)</title></rect><rect id="rect3602" width="10" height="20" x="338" y="113" fill="#202020" class="sim-led-back" rx="2" ry="2"/><rect id="rect3604" width="10" height="20" x="154" y="157" fill="#202020" class="sim-led-back" rx="2" ry="2"/><rect id="rect3606" width="14" height="24" x="152" y="155" fill="#FF7F7F" class="sim-led" rx="3" ry="3"><title id="title3608">(0,1)</title></rect><rect id="rect3610" width="10" height="20" x="200" y="157" fill="#202020" class="sim-led-back" rx="2" ry="2"/><rect id="rect3612" width="10" height="20" x="246" y="157" fill="#202020" class="sim-led-back" rx="2" ry="2"/><rect id="rect3614" width="14" height="24" x="244" y="155" fill="#FF7F7F" class="sim-led" rx="3" ry="3"><title id="title3616">(2,1)</title></rect><rect id="rect3618" width="10" height="20" x="292" y="157" fill="#202020" class="sim-led-back" rx="2" ry="2"/><rect id="rect3620" width="10" height="20" x="338" y="157" fill="#202020" class="sim-led-back" rx="2" ry="2"/><rect id="rect3622" width="14" height="24" x="336" y="155" fill="#FF7F7F" class="sim-led" rx="3" ry="3"><title id="title3624">(4,1)</title></rect><rect id="rect3626" width="10" height="20" x="154" y="201" fill="#202020" class="sim-led-back" rx="2" ry="2"/><rect id="rect3628" width="14" height="24" x="152" y="199" fill="#FF7F7F" class="sim-led" rx="3" ry="3"><title id="title3630">(0,2)</title></rect><rect id="rect3632" width="10" height="20" x="200" y="201" fill="#202020" class="sim-led-back" rx="2" ry="2"/><rect id="rect3634" width="10" height="20" x="246" y="201" fill="#202020" class="sim-led-back" rx="2" ry="2"/><rect id="rect3636" width="10" height="20" x="292" y="201" fill="#202020" class="sim-led-back" rx="2" ry="2"/><rect id="rect3638" width="10" height="20" x="338" y="201" fill="#202020" class="sim-led-back" rx="2" ry="2"/><rect id="rect3640" width="14" height="24" x="336" y="199" fill="#FF7F7F" class="sim-led" rx="3" ry="3"><title id="title3642">(4,2)</title></rect><rect id="rect3644" width="10" height="20" x="154" y="245" fill="#202020" class="sim-led-back" rx="2" ry="2"/><rect id="rect3646" width="10" height="20" x="200" y="245" fill="#202020" class="sim-led-back" rx="2" ry="2"/><rect id="rect3648" width="14" height="24" x="198" y="243" fill="#FF7F7F" class="sim-led" rx="3" ry="3"><title id="title3650">(1,3)</title></rect><rect id="rect3652" width="10" height="20" x="246" y="245" fill="#202020" class="sim-led-back" rx="2" ry="2"/><rect id="rect3654" width="10" height="20" x="292" y="245" fill="#202020" class="sim-led-back" rx="2" ry="2"/><rect id="rect3656" width="14" height="24" x="290" y="243" fill="#FF7F7F" class="sim-led" rx="3" ry="3"><title id="title3658">(3,3)</title></rect><rect id="rect3660" width="10" height="20" x="338" y="245" fill="#202020" class="sim-led-back" rx="2" ry="2"/><rect id="rect3662" width="10" height="20" x="154" y="289" fill="#202020" class="sim-led-back" rx="2" ry="2"/><rect id="rect3664" width="10" height="20" x="200" y="289" fill="#202020" class="sim-led-back" rx="2" ry="2"/><rect id="rect3666" width="10" height="20" x="246" y="289" fill="#202020" class="sim-led-back" rx="2" ry="2"/><rect id="rect3668" width="14" height="24" x="244" y="287" fill="#FF7F7F" class="sim-led" rx="3" ry="3"><title id="title3670">(2,4)</title></rect><rect id="rect3672" width="10" height="20" x="292" y="289" fill="#202020" class="sim-led-back" rx="2" ry="2"/><rect id="rect3674" width="10" height="20" x="338" y="289" fill="#202020" class="sim-led-back" rx="2" ry="2"/><path id="path3678" fill="#FF3A54" d="M269.9 50.2h-39.5c-14.1.1-24.6 10.7-24.6 24.8 0 13.9 10.4 24.4 24.3 24.7h39.6c14.2 0 24.8-10.6 24.8-24.7 0-14-10.5-24.7-24.6-24.8m-.2 39h-39.3c-7.7-.1-14-6.4-14-14.2 0-7.8 6.4-14.2 14.2-14.2h39.1c7.8 0 14.2 6.4 14.2 14.2 0 7.9-6.4 14.2-14.2 14.2" class="sim-theme"/><path id="path3680" fill="#FF3A54" d="M230.6 69.7c-2.9 0-5.3 2.4-5.3 5.3s2.4 5.3 5.3 5.3 5.3-2.4 5.3-5.3-2.4-5.3-5.3-5.3m39.1 10.6c2.9 0 5.3-2.4 5.3-5.3s-2.4-5.3-5.3-5.3-5.3 2.4-5.3 5.3 2.4 5.3 5.3 5.3" class="sim-theme"/><path id="path3682" fill="url(#gradient-pin-0)" d="M16.5 341.2c0 .4-.1.9-.1 1.3v60.7c4.1 1.7 8.6 2.7 12.9 2.7h34.4v-64.7h.3v-.1c0-13-10.6-23.6-23.7-23.6-13.1.1-23.8 10.6-23.8 23.7zm4.7.4c0-10.7 8.7-19.3 19.3-19.3 10.7 0 19.3 8.7 19.3 19.3 0 10.7-8.6 19.3-19.3 19.3-10.6 0-19.3-8.7-19.3-19.3z" class="sim-pin sim-pin-touch"><title id="title3684">P0, ANALOG IN</title></path><path id="path3686" fill="url(#gradient-pin-1)" d="M139.1 317.3c-12.8 0-22.1 10.3-23.1 23.1V406h46.2v-65.6c0-12.7-10.3-23.1-23.1-23.1zm.2 42.8c-10.7 0-19.3-8.6-19.3-19.3 0-10.7 8.6-19.3 19.3-19.3 10.7 0 19.3 8.7 19.3 19.3 0 10.7-8.6 19.3-19.3 19.3z" class="sim-pin sim-pin-touch"><title id="title3688">P1, ANALOG IN</title></path><path id="path3690" fill="url(#gradient-pin-2)" d="M249 317.3c-12.8 0-22.1 10.3-23.1 23.1V406h46.2v-65.6c0-12.7-10.3-23.1-23.1-23.1zm.4 42.8c-10.7 0-19.3-8.6-19.3-19.3 0-10.7 8.6-19.3 19.3-19.3 10.7 0 19.3 8.7 19.3 19.3 0 10.7-8.6 19.3-19.3 19.3z" class="sim-pin sim-pin-touch"><title id="title3692">P2, ANALOG IN</title></path><path id="path3694" fill="url(#gradient-pin-3)" d="M0 357.7v19.2c0 10.8 6.2 20.2 14.4 25.2v-44.4H0z" class="sim-pin"><title id="title3696">P3, ANALOG IN, LED Col 1</title></path><path id="path3698" fill="url(#gradient-pin-4)" d="M66.7 356.7h10v50h-10z" class="sim-pin"><title id="title3700">P4, ANALOG IN, LED Col 2</title></path><path id="path3702" fill="url(#gradient-pin-5)" d="M79.1 356.7h10v50h-10z" class="sim-pin"><title id="title3704">P5, BUTTON A</title></path><path id="path3706" fill="url(#gradient-pin-6)" d="M91.4 356.7h10v50h-10z" class="sim-pin"><title id="title3708">P6, LED Col 9</title></path><path id="path3710" fill="url(#gradient-pin-7)" d="M103.7 356.7h10v50h-10z" class="sim-pin"><title id="title3712">P7, LED Col 8</title></path><path id="path3714" fill="url(#gradient-pin-8)" d="M164.3 356.7h10v50h-10z" class="sim-pin"><title id="title3716">P8</title></path><path id="path3718" fill="url(#gradient-pin-9)" d="M176.6 356.7h10v50h-10z" class="sim-pin"><title id="title3720">P9, LED Col 7</title></path><path id="path3722" fill="url(#gradient-pin-10)" d="M188.9 356.7h10v50h-10z" class="sim-pin"><title id="title3724">P10, ANALOG IN, LED Col 3</title></path><path id="path3726" fill="url(#gradient-pin-11)" d="M201.3 356.7h10v50h-10z" class="sim-pin"><title id="title3728">P11, BUTTON B</title></path><path id="path3730" fill="url(#gradient-pin-12)" d="M213.6 356.7h10v50h-10z" class="sim-pin"><title id="title3732">P12, RESERVED ACCESSIBILITY</title></path><path id="path3734" fill="url(#gradient-pin-13)" d="M275.2 356.7h10v50h-10z" class="sim-pin"><title id="title3736">P13, SPI - SCK</title></path><path id="path3738" fill="url(#gradient-pin-14)" d="M287.5 356.7h10v50h-10z" class="sim-pin"><title id="title3740">P14, SPI - MISO</title></path><path id="path3742" fill="url(#gradient-pin-15)" d="M299.8 356.7h10v50h-10z" class="sim-pin"><title id="title3744">P15, SPI - MOSI</title></path><path id="path3746" fill="url(#gradient-pin-16)" d="M312.1 356.7h10v50h-10z" class="sim-pin"><title id="title3748">P16, SPI - Chip Select</title></path><path id="path3750" fill="url(#gradient-pin-17)" d="M324.5 356.7h10v50h-10z" class="sim-pin"><title id="title3752">P17, +3v3</title></path><path id="path3754" fill="url(#gradient-pin-18)" d="M385.1 356.7h10v50h-10z" class="sim-pin"><title id="title3756">P18, +3v3</title></path><path id="path3758" fill="url(#gradient-pin-19)" d="M397.4 356.7h10v50h-10z" class="sim-pin"><title id="title3760">P19, I2C - SCL</title></path><path id="path3762" fill="url(#gradient-pin-20)" d="M409.7 356.7h10v50h-10z" class="sim-pin"><title id="title3764">P20, I2C - SDA</title></path><path id="path3766" fill="url(#gradient-pin-21)" d="M422 356.7h10v50h-10z" class="sim-pin"><title id="title3768">GND</title></path><path id="path3770" fill="url(#gradient-pin-22)" d="M483.6 402c8.2-5 14.4-14.4 14.4-25.1v-19.2h-14.4V402z" class="sim-pin"><title id="title3772">GND</title></path><path id="path3774" fill="url(#gradient-pin-23)" d="M359.9 317.3c-12.8 0-22.1 10.3-23.1 23.1V406H383v-65.6c0-12.7-10.3-23.1-23.1-23.1zm.1 42.8c-10.7 0-19.3-8.6-19.3-19.3 0-10.7 8.6-19.3 19.3-19.3 10.7 0 19.3 8.7 19.3 19.3 0 10.7-8.6 19.3-19.3 19.3z" class="sim-pin"><title id="title3776">+3v3</title></path><path id="path3778" fill="url(#gradient-pin-24)" d="M458 317.6c-13 0-23.6 10.6-23.6 23.6V406H469c4.3 0 8.4-1 12.6-2.7v-62c0-13.2-10.6-23.7-23.6-23.7zm-.2 43.3c-10.7 0-19.3-8.6-19.3-19.3 0-10.7 8.6-19.3 19.3-19.3 10.7 0 19.3 8.7 19.3 19.3 0 10.6-8.7 19.3-19.3 19.3z" class="sim-pin"><title id="title3780">GND</title></path><path id="path3782" fill="#979797" d="M82.1 232.6H25.9c-.5 0-1-.4-1-1v-56.2c0-.5.4-1 1-1h56.2c.5 0 1 .4 1 1v56.2c-.1.6-.5 1-1 1" class="sim-button-outer"><title id="title3784">A</title></path><path id="path3786" d="M69.7 203.5c0 8.7-7 15.7-15.7 15.7s-15.7-7-15.7-15.7 7-15.7 15.7-15.7 15.7 7.1 15.7 15.7" class="sim-button"/><path id="path3788" fill="#979797" d="M474.3 232.6h-56.2c-.5 0-1-.4-1-1v-56.2c0-.5.4-1 1-1h56.2c.5 0 1 .4 1 1v56.2c0 .6-.5 1-1 1" class="sim-button-outer"><title id="title3790">B</title></path><path id="path3792" d="M461.9 203.5c0 8.7-7 15.7-15.7 15.7s-15.7-7-15.7-15.7 7-15.7 15.7-15.7 15.7 7.1 15.7 15.7" class="sim-button"/></g></svg>