<svg xmlns="http://www.w3.org/2000/svg" xmlns:svg="http://www.w3.org/2000/svg" id="svg2" width="1000" height="1000" version="1.1" viewBox="0 0 1000 1000"><metadata id="metadata10"/><path id="path4" d="m 435.402,175.034 c 112.007,0 216.014,40.003 292.02,120.008 36.002,36.003 68.004,80.006 88.006,124.009 l 160.011,-184.013 0,448.032 -396.027,0 136.01,-156.011 c -12.001,-52.004 -36.003,-104.008 -76.005,-144.01 -56.004,-52.004 -128.01,-84.006 -204.015,-84.006 -76.005,0 -148.01,32.002 -200.014,84.006 -56.004,56.003 -84.006,128.008 -84.006,204.014 0,76.005 28.002,148.01 84.006,204.014 24.002,24.002 24.002,64.005 0,88.006 -16.001,12.001 -32.002,20.002 -48.003,20.002 -16.001,0 -32.002,-8 -44.003,-20.002 C 67.376,803.078 23.373,699.071 23.373,587.063 c 0,-112.008 44.003,-216.015 120.009,-292.02 80.005,-80.006 184.013,-120.01 292.02,-120.01 z"/></svg>